<svg xmlns="http://www.w3.org/2000/svg" viewBox="2.596 103.281 637.249 437.911" width="637.249" height="437.911">
  <circle style="fill: rgb(255, 255, 255);" cx="324.231" cy="322.04" r="218.759"></circle>
  <path d="M 397.559 115.712 C 401.182 117.537 395.734 126.168 384.392 126.184 C 378.12 126.202 375.771 126.8 367.96 130.463 C 359.599 134.369 358.059 134.741 349.828 134.757 C 339.975 134.757 336.329 137.009 331.84 145.874 C 328.26 152.955 325.715 154.267 320.351 151.82 C 317.306 150.426 315.361 146.7 315.361 142.227 C 315.361 133.169 302.737 132.196 284.184 139.813 C 259.748 149.843 256.62 157.605 275.708 160.847 C 285.464 162.515 299.253 167.863 303.305 171.589 C 315.587 182.835 311.537 231.547 291.043 257.943 L 421.503 407.079 C 429.546 401.343 437.687 383.85 431.887 366.819 C 429.213 358.929 424.318 351.345 411.68 335.48 C 385.299 302.358 402.929 243.764 439.292 243.764 C 449.679 243.764 461.784 249.467 473.806 260.017 C 497.174 280.515 540.564 286.034 537.177 271.337 C 533.434 255.067 529.425 244.329 523.206 230.192 C 513.561 208.268 488.181 172.632 465.679 154.91 C 462.824 152.661 434.829 128.461 400.932 116.931 M 338.533 159.534 C 343.735 163.844 334.223 173.761 328.746 169.743 C 326.169 167.879 325.845 159.89 328.26 158.286 C 330.172 157.006 336.41 157.767 338.533 159.534 M 119.326 245.174 C 78.011 357.645 133.013 458.337 199.435 503.045 C 230.287 523.803 255.42 533.19 305.168 540.677 C 313.967 542.005 350.434 540.779 367.352 536.852 C 381.506 533.567 404.793 526.546 417.87 520.583 C 438.709 511.071 444.284 505.534 451.1 500.332 C 454.057 498.075 445.72 502.889 429.275 502.904 C 389.721 502.938 386.804 445.143 428.275 397.723 C 428.275 397.723 285.836 263.619 285.464 263.813 C 271.544 270.749 221.003 311.935 207.618 329.777 C 175.776 372.183 169.489 410.345 189.614 438.962 C 196.745 449.106 194.541 452.59 182.437 450.354 C 166.151 447.339 152.588 432.82 142.315 407.411 C 142.006 406.666 140.483 402.907 137.745 396.118 C 137.777 385.487 137.793 379.589 137.793 378.405 C 137.826 363.547 138.231 359.139 140.305 351.037 C 145.863 329.29 144.777 318.012 134.828 294.337 C 117.148 252.19 125.628 237.116 120.151 243.112 M 492.993 204.42 C 505.211 210.075 510.42 205.23 521.604 228.646 C 527.726 241.466 528.967 246.599 524.607 258.008 C 519.908 270.323 517.024 270.647 513.346 259.288 C 509.699 248.009 504.222 245.271 495.051 250.148 C 477.177 259.644 465.623 235.92 477.177 213.445 C 483.14 201.827 485.053 200.741 492.993 204.42" opacity="1" fill="#22a9dd" fill-opacity="1" style=""></path>
  <path opacity="1" fill="#f4eb37" fill-opacity="1" style="paint-order: fill; stroke-width: 7px;" d="M 190.133 142.318 C 82.583 91.231 1.435 167.824 2.609 236.671 C 3.428 284.658 33.019 335.136 106.782 348.266 L 105.941 309.875 C 56.587 300.684 42.495 267.62 42.392 241.331 C 42.252 205.97 86.606 140.004 162.509 174.257 C 224.854 202.39 234.047 234.49 331.187 344.638 C 422.515 448.195 457.974 475.626 512.011 481.851 C 560.154 487.397 609.505 473.587 628.389 436.727 C 654.728 385.311 639.509 310.188 542.007 303.091 C 542.007 303.091 542.269 335.142 541.643 343.101 C 594.348 348.05 608.037 401.163 580.182 423.101 C 555.295 442.702 518.335 447.44 478.38 423.351 C 362.509 353.489 308.145 210.083 190.051 142.263"></path>
</svg>