<svg xmlns="http://www.w3.org/2000/svg" viewBox="0 0 640 640" width="640" height="640">
  <circle style="fill: rgb(88, 56, 105);" cx="320" cy="320" r="320"></circle>
  <circle style="fill: rgb(55, 51, 102);" cx="320" cy="320" r="232.992"></circle>
  <circle style="fill: rgb(41, 37, 96);" cx="320" cy="320" r="177.5"></circle>
  <circle style="fill: rgb(255, 255, 255);" cx="320" cy="320" r="135"></circle>

  <path d="M 365.252 192.671 C 367.488 193.797 364.126 199.124 357.126 199.134 C 353.256 199.144 351.806 199.514 346.986 201.774 C 341.826 204.184 340.876 204.414 335.796 204.424 C 329.716 204.424 327.466 205.814 324.696 211.284 C 322.486 215.654 320.916 216.464 317.606 214.954 C 315.726 214.094 314.526 211.794 314.526 209.034 C 314.526 203.444 306.736 202.844 295.286 207.544 C 280.206 213.734 278.276 218.524 290.056 220.524 C 296.076 221.554 304.586 224.854 307.086 227.154 C 314.666 234.094 312.167 264.155 299.519 280.444 L 380.028 372.479 C 384.992 368.939 390.016 358.144 386.436 347.634 C 384.786 342.764 381.766 338.084 373.966 328.294 C 357.686 307.854 368.566 271.694 391.006 271.694 C 397.416 271.694 404.886 275.214 412.306 281.724 C 426.726 294.374 453.503 297.78 451.413 288.71 C 449.103 278.67 446.629 272.043 442.791 263.319 C 436.839 249.789 421.176 227.797 407.29 216.861 C 405.528 215.473 388.252 200.539 367.334 193.423 M 328.826 219.714 C 332.036 222.374 326.166 228.494 322.786 226.014 C 321.196 224.864 320.996 219.934 322.486 218.944 C 323.666 218.154 327.516 218.624 328.826 219.714 M 193.549 272.564 C 168.053 341.972 201.996 404.111 242.986 431.701 C 262.026 444.511 277.536 450.304 308.236 454.924 C 313.666 455.744 336.17 454.987 346.611 452.564 C 355.346 450.537 369.716 446.204 377.786 442.524 C 390.646 436.654 394.087 433.237 398.293 430.027 C 400.118 428.634 394.973 431.605 384.825 431.614 C 360.415 431.635 358.615 395.969 384.207 366.705 C 384.207 366.705 296.306 283.947 296.076 284.067 C 287.486 288.347 256.296 313.764 248.036 324.774 C 228.386 350.944 224.506 374.494 236.926 392.154 C 241.326 398.414 239.966 400.564 232.496 399.184 C 222.446 397.324 214.076 388.364 207.736 372.684 C 207.546 372.224 206.606 369.904 204.916 365.714 C 204.936 359.154 204.946 355.514 204.946 354.784 C 204.966 345.614 205.216 342.894 206.496 337.894 C 209.926 324.474 209.256 317.514 203.116 302.904 C 192.206 276.894 197.438 267.592 194.058 271.292 M 424.146 247.414 C 431.686 250.904 434.9 247.914 441.802 262.364 C 445.581 270.276 446.346 273.444 443.656 280.484 C 440.756 288.084 438.976 288.284 436.706 281.274 C 434.456 274.314 431.076 272.624 425.416 275.634 C 414.386 281.494 407.256 266.854 414.386 252.984 C 418.066 245.814 419.246 245.144 424.146 247.414" opacity="1" fill="#22a9dd" fill-opacity="1"></path>

  <path opacity="1" fill="#f4eb37" fill-opacity="1" style="paint-order: fill; stroke-width: 7px;" d="M 237.246 209.09 C 170.875 177.563 120.797 224.83 121.522 267.317 C 122.027 296.931 140.288 328.081 185.808 336.184 L 185.289 312.492 C 154.832 306.82 146.136 286.416 146.072 270.193 C 145.986 248.371 173.357 207.662 220.199 228.8 C 258.673 246.162 264.346 265.971 324.293 333.945 C 380.653 397.852 402.535 414.78 435.882 418.622 C 465.592 422.045 496.048 413.522 507.701 390.775 C 523.956 359.045 514.564 312.686 454.394 308.306 C 454.394 308.306 454.555 328.085 454.169 332.997 C 486.694 336.051 495.142 368.828 477.952 382.366 C 462.594 394.462 439.785 397.386 415.128 382.52 C 343.622 339.407 310.073 250.909 237.195 209.056"></path>
</svg>