<svg viewBox="0 0 512 512" xmlns="http://www.w3.org/2000/svg"><path d="M481 405H311l-3 14c-1 9-9 16-18 16h-68c-9 0-17-7-18-16l-3-14H31c-11 0-21 9-21 21v38h492v-38c0-12-10-21-21-21z" fill="#9593e6"/><path d="M473 154c0-13-11-24-24-24h-48v132c0 16-13 29-28 29H139c-15 0-28-13-28-29V130H63c-13 0-24 11-24 24v199h434z" fill="#fff"/><path d="M311 405h162v-52H39v52h162z" fill="#cbcaf3"/><path d="M401 77c0-16-13-29-28-29H139c-15 0-28 13-28 29v21h290z" fill="#9593e6"/><path d="M204 419c1 9 9 16 18 16h68c9 0 17-7 18-16l3-14H201z" fill="#fff"/><g fill="#a5dbff"><path d="M111 98v164c0 16 13 29 28 29h234c15 0 28-13 28-29V98zm108 139l-5-18h-30l-5 18c-2 7-19 4-19-4v-1l26-86c3-8 21-8 23 0l27 86v2c0 6-15 10-17 3zm94-64c0 10-3 18-9 23-12 11-28 7-39 8v31c0 8-17 8-17 0v-89c0-2 2-5 6-5h28c19 0 31 10 31 31v1zm29 62c0 8-18 8-18 0v-89c0-5 10-6 15-4l3 4z"/><path d="M188 205h24l-12-42zM281 157h-16v33c12-1 21 2 26-4 5-5 4-13 4-14 0-10-5-15-14-15z"/></g><path d="M209 146c-2-8-20-8-23 0l-26 86v1c0 8 17 11 19 4l5-18h30l5 18c2 7 17 3 17-3v-2zm-21 59l12-42 12 42zM339 142c-5-2-15-1-15 4v89c0 8 18 8 18 0v-89l-3-4zM282 141h-28c-4 0-6 3-6 5v89c0 8 17 8 17 0v-31c11-1 27 3 39-8 6-5 9-13 9-23v-1c0-21-12-31-31-31zm9 45c-5 6-14 3-26 4v-33h16c9 0 14 5 14 15 0 1 1 9-4 14z"/><g><path d="M483 395V154c0-19-15-34-34-34h-38V77c0-22-17-39-38-39H139c-21 0-38 17-38 39v43H63c-19 0-34 15-34 34v241c-16 1-29 15-29 31v38c0 6 4 10 10 10h492c6 0 10-4 10-10v-38c0-16-13-30-29-31zM49 363h414v32H49zm250 52v2c-1 5-5 8-9 8h-68c-4 0-8-3-9-8v-2zM121 77c0-11 8-19 18-19h234c10 0 18 8 18 19v11H121zm-58 63h38v122c0 21 17 39 38 39h132a10 10 0 000-20H139c-10 0-18-9-18-19V108h270v154c0 10-8 19-18 19h-22a10 10 0 000 20h22c21 0 38-18 38-39V140h38c8 0 14 6 14 14v189H49V154c0-8 6-14 14-14zm429 314H20v-28c0-6 5-11 11-11h162l1 6c2 14 14 24 28 24h68c14 0 26-10 28-24l1-6h162c6 0 11 5 11 11v28z"/><path d="M366 63h-17a10 10 0 000 20h17a10 10 0 000-20zM311 281z"/></g></svg>