<svg xmlns="http://www.w3.org/2000/svg">
    <defs>
        <clipPath id="a">
            <path fill-rule="evenodd" d="M0 0h567v567H0z" clip-rule="evenodd"/>
        </clipPath>
        <clipPath id="b">
            <path fill-rule="evenodd" d="M0 144h134v134H0z" clip-rule="evenodd"/>
        </clipPath>
        <clipPath id="c">
            <path fill-rule="evenodd" d="M0 144h134v134H0z" clip-rule="evenodd"/>
        </clipPath>
        <clipPath id="d">
            <path fill-rule="evenodd" d="M0 144h134v134H0z" clip-rule="evenodd"/>
        </clipPath>
        <clipPath id="f">
            <path fill-rule="evenodd" d="M144 144h134v134H144z" clip-rule="evenodd"/>
        </clipPath>
        <clipPath id="g">
            <path fill-rule="evenodd" d="M144 144h134v134H144z" clip-rule="evenodd"/>
        </clipPath>
        <clipPath id="h">
            <path fill-rule="evenodd" d="M144 144h134v134H144z" clip-rule="evenodd"/>
        </clipPath>
        <clipPath id="j">
            <path fill-rule="evenodd" d="M287 144h134v134H287z" clip-rule="evenodd"/>
        </clipPath>
        <clipPath id="k">
            <path fill-rule="evenodd" d="M287 144h134v134H287z" clip-rule="evenodd"/>
        </clipPath>
        <clipPath id="l">
            <path fill-rule="evenodd" d="M287 144h134v134H287z" clip-rule="evenodd"/>
        </clipPath>
        <clipPath id="n">
            <path fill-rule="evenodd" d="M433 144h134v134H433z" clip-rule="evenodd"/>
        </clipPath>
        <clipPath id="o">
            <path fill-rule="evenodd" d="M433 144h134v134H433z" clip-rule="evenodd"/>
        </clipPath>
        <clipPath id="p">
            <path fill-rule="evenodd" d="M433 144h134v134H433z" clip-rule="evenodd"/>
        </clipPath>
        <clipPath id="r">
            <path fill-rule="evenodd" d="M0 289h134v134H0z" clip-rule="evenodd"/>
        </clipPath>
        <clipPath id="s">
            <path fill-rule="evenodd" d="M0 289h134v134H0z" clip-rule="evenodd"/>
        </clipPath>
        <clipPath id="t">
            <path fill-rule="evenodd" d="M0 289h134v134H0z" clip-rule="evenodd"/>
        </clipPath>
        <clipPath id="v">
            <path fill-rule="evenodd" d="M144 289h134v134H144z" clip-rule="evenodd"/>
        </clipPath>
        <clipPath id="w">
            <path fill-rule="evenodd" d="M144 289h134v134H144z" clip-rule="evenodd"/>
        </clipPath>
        <clipPath id="x">
            <path fill-rule="evenodd" d="M144 289h134v134H144z" clip-rule="evenodd"/>
        </clipPath>
        <clipPath id="z">
            <path fill-rule="evenodd" d="M287 289h134v134H287z" clip-rule="evenodd"/>
        </clipPath>
        <clipPath id="A">
            <path fill-rule="evenodd" d="M287 289h134v134H287z" clip-rule="evenodd"/>
        </clipPath>
        <clipPath id="B">
            <path fill-rule="evenodd" d="M287 289h134v134H287z" clip-rule="evenodd"/>
        </clipPath>
        <clipPath id="D">
            <path fill-rule="evenodd" d="M433 289h134v134H433z" clip-rule="evenodd"/>
        </clipPath>
        <clipPath id="E">
            <path fill-rule="evenodd" d="M433 289h134v134H433z" clip-rule="evenodd"/>
        </clipPath>
        <clipPath id="F">
            <path fill-rule="evenodd" d="M433 289h134v134H433z" clip-rule="evenodd"/>
        </clipPath>
        <clipPath id="H">
            <path fill-rule="evenodd" d="M0 433h134v134H0z" clip-rule="evenodd"/>
        </clipPath>
        <clipPath id="I">
            <path fill-rule="evenodd" d="M0 433h134v134H0z" clip-rule="evenodd"/>
        </clipPath>
        <clipPath id="J">
            <path fill-rule="evenodd" d="M0 433h134v134H0z" clip-rule="evenodd"/>
        </clipPath>
        <clipPath id="L">
            <path fill-rule="evenodd" d="M144 433h134v134H144z" clip-rule="evenodd"/>
        </clipPath>
        <clipPath id="M">
            <path fill-rule="evenodd" d="M144 433h134v134H144z" clip-rule="evenodd"/>
        </clipPath>
        <clipPath id="N">
            <path fill-rule="evenodd" d="M144 433h134v134H144z" clip-rule="evenodd"/>
        </clipPath>
        <clipPath id="P">
            <path fill-rule="evenodd" d="M287 433h134v134H287z" clip-rule="evenodd"/>
        </clipPath>
        <clipPath id="Q">
            <path fill-rule="evenodd" d="M287 433h134v134H287z" clip-rule="evenodd"/>
        </clipPath>
        <clipPath id="R">
            <path fill-rule="evenodd" d="M287 433h134v134H287z" clip-rule="evenodd"/>
        </clipPath>
        <clipPath id="T">
            <path fill-rule="evenodd" d="M433 433h134v134H433z" clip-rule="evenodd"/>
        </clipPath>
        <clipPath id="U">
            <path fill-rule="evenodd" d="M433 433h134v134H433z" clip-rule="evenodd"/>
        </clipPath>
        <clipPath id="V">
            <path fill-rule="evenodd" d="M433 433h134v134H433z" clip-rule="evenodd"/>
        </clipPath>
        <clipPath id="X">
            <path fill-rule="evenodd" d="M0 0h134v134H0z" clip-rule="evenodd"/>
        </clipPath>
        <clipPath id="Y">
            <path fill-rule="evenodd" d="M0 0h134v134H0z" clip-rule="evenodd"/>
        </clipPath>
        <clipPath id="Z">
            <path fill-rule="evenodd" d="M0 0h134v134H0z" clip-rule="evenodd"/>
        </clipPath>
        <clipPath id="ab">
            <path fill-rule="evenodd" d="M144 0h134v134H144z" clip-rule="evenodd"/>
        </clipPath>
        <clipPath id="ac">
            <path fill-rule="evenodd" d="M144 0h134v134H144z" clip-rule="evenodd"/>
        </clipPath>
        <clipPath id="ad">
            <path fill-rule="evenodd" d="M144 0h134v134H144z" clip-rule="evenodd"/>
        </clipPath>
        <clipPath id="af">
            <path fill-rule="evenodd" d="M287 0h134v134H287z" clip-rule="evenodd"/>
        </clipPath>
        <clipPath id="ag">
            <path fill-rule="evenodd" d="M287 0h134v134H287z" clip-rule="evenodd"/>
        </clipPath>
        <clipPath id="ah">
            <path fill-rule="evenodd" d="M287 0h134v134H287z" clip-rule="evenodd"/>
        </clipPath>
        <clipPath id="aj">
            <path fill-rule="evenodd" d="M433 0h134v134H433z" clip-rule="evenodd"/>
        </clipPath>
        <clipPath id="ak">
            <path fill-rule="evenodd" d="M433 0h134v134H433z" clip-rule="evenodd"/>
        </clipPath>
        <clipPath id="al">
            <path fill-rule="evenodd" d="M433 0h134v134H433z" clip-rule="evenodd"/>
        </clipPath>
        <linearGradient id="e" x1="-27.75" x2="161.75" y1="305.75" y2="116.25" gradientUnits="userSpaceOnUse" spreadMethod="pad">
            <stop offset="0" stop-color="#2E27AD"/>
            <stop offset="1" stop-color="#527FFF"/>
        </linearGradient>
        <linearGradient id="i" x1="116.25" x2="305.75" y1="305.75" y2="116.25" gradientUnits="userSpaceOnUse" spreadMethod="pad">
            <stop offset="0" stop-color="#2E27AD"/>
            <stop offset="1" stop-color="#527FFF"/>
        </linearGradient>
        <linearGradient id="m" x1="259.25" x2="448.75" y1="305.75" y2="116.25" gradientUnits="userSpaceOnUse" spreadMethod="pad">
            <stop offset="0" stop-color="#2E27AD"/>
            <stop offset="1" stop-color="#527FFF"/>
        </linearGradient>
        <linearGradient id="q" x1="405.24" x2="594.75" y1="305.74" y2="116.24" gradientUnits="userSpaceOnUse" spreadMethod="pad">
            <stop offset="0" stop-color="#2E27AD"/>
            <stop offset="1" stop-color="#527FFF"/>
        </linearGradient>
        <linearGradient id="u" x1="-27.75" x2="161.75" y1="450.74" y2="261.24" gradientUnits="userSpaceOnUse" spreadMethod="pad">
            <stop offset="0" stop-color="#4D27A8"/>
            <stop offset="1" stop-color="#A166FF"/>
        </linearGradient>
        <linearGradient id="y" x1="116.25" x2="305.75" y1="450.75" y2="261.25" gradientUnits="userSpaceOnUse" spreadMethod="pad">
            <stop offset="0" stop-color="#4D27A8"/>
            <stop offset="1" stop-color="#A166FF"/>
        </linearGradient>
        <linearGradient id="C" x1="259.25" x2="448.75" y1="450.75" y2="261.25" gradientUnits="userSpaceOnUse" spreadMethod="pad">
            <stop offset="0" stop-color="#4D27A8"/>
            <stop offset="1" stop-color="#A166FF"/>
        </linearGradient>
        <linearGradient id="G" x1="405.25" x2="594.75" y1="450.75" y2="261.25" gradientUnits="userSpaceOnUse" spreadMethod="pad">
            <stop offset="0" stop-color="#4D27A8"/>
            <stop offset="1" stop-color="#A166FF"/>
        </linearGradient>
        <linearGradient id="K" x1="-27.76" x2="161.75" y1="594.74" y2="405.24" gradientUnits="userSpaceOnUse" spreadMethod="pad">
            <stop offset="0" stop-color="#B0084D"/>
            <stop offset="1" stop-color="#FF4F8B"/>
        </linearGradient>
        <linearGradient id="O" x1="111.55" x2="310.44" y1="589.55" y2="410.46" gradientUnits="userSpaceOnUse" spreadMethod="pad">
            <stop offset="0" stop-color="#B0084D"/>
            <stop offset="1" stop-color="#FF4F8B"/>
        </linearGradient>
        <linearGradient id="S" x1="259.25" x2="448.76" y1="594.75" y2="405.24" gradientUnits="userSpaceOnUse" spreadMethod="pad">
            <stop offset="0" stop-color="#B0084D"/>
            <stop offset="1" stop-color="#FF4F8B"/>
        </linearGradient>
        <linearGradient id="W" x1="405.25" x2="594.75" y1="594.75" y2="405.25" gradientUnits="userSpaceOnUse" spreadMethod="pad">
            <stop offset="0" stop-color="#B0084D"/>
            <stop offset="1" stop-color="#FF4F8B"/>
        </linearGradient>
        <linearGradient id="aa" x1="-27.76" x2="161.75" y1="161.74" y2="-27.76" gradientUnits="userSpaceOnUse" spreadMethod="pad">
            <stop offset="0" stop-color="#C8511B"/>
            <stop offset="1" stop-color="#F90"/>
        </linearGradient>
        <linearGradient id="ae" x1="116.25" x2="305.75" y1="161.74" y2="-27.76" gradientUnits="userSpaceOnUse" spreadMethod="pad">
            <stop offset="0" stop-color="#C8511B"/>
            <stop offset="1" stop-color="#F90"/>
        </linearGradient>
        <linearGradient id="ai" x1="259.24" x2="448.75" y1="161.75" y2="-27.76" gradientUnits="userSpaceOnUse" spreadMethod="pad">
            <stop offset="0" stop-color="#C8511B"/>
            <stop offset="1" stop-color="#F90"/>
        </linearGradient>
        <linearGradient id="am" x1="405.24" x2="594.75" y1="161.75" y2="-27.76" gradientUnits="userSpaceOnUse" spreadMethod="pad">
            <stop offset="0" stop-color="#C8511B"/>
            <stop offset="1" stop-color="#F90"/>
        </linearGradient>
    </defs>
    <g clip-path="url(#a)">
        <path fill="#FFF" d="M0 0h567v567H0z"/>
        <g clip-path="url(#b)">
            <g clip-path="url(#c)">
                <g clip-path="url(#d)">
                    <path fill="url(#e)" d="M0 144h134v134H0z"/>
                    <path fill="#FFF" d="M89.78 216.32l-11.81 11.8c2.12-.6 4.17-1.43 6.11-2.49a4.61 4.61 0 012.13 3.22c0 3.27-6.94 6.82-17.23 8.27-3.17.43-6.37.66-9.57.68h-1.79c-14.44-.34-25.01-4.9-25.01-8.93.2-1.33.98-2.5 2.12-3.22 5.61 3.13 14.7 4.98 24.68 4.98h.2l1-3.57h-1.2c-9.83 0-18.94-1.94-23.78-5.02-1.93-1.27-3-2.64-3.02-3.84v-8.27c5.46 4.18 16.36 6.36 26.8 6.36 1.4 0 2.82 0 4.2-.13l1.01-3.57c-1.78.13-3.44.18-5.21.18-15.33 0-26.8-4.7-26.8-8.94.2-1.33.98-2.5 2.12-3.21 4.93 2.77 12.51 4.5 21.1 4.9l.1-3.58c-8.46-.4-16.09-2.23-20.3-4.93-1.92-1.23-2.99-2.63-3.02-3.84v-8.25c5.46 4.18 16.36 6.36 26.8 6.36h.39l1.9-3.58h-2.3c-15.32 0-26.8-4.7-26.8-8.93 0-4.24 11.48-8.94 26.8-8.94a64.3 64.3 0 0115.34 1.8h9.8c-5.35-3.28-14.61-5.37-25.13-5.37-14.73 0-30.38 4.36-30.38 12.5v14.4a7.25 7.25 0 002.7 5.26 7.27 7.27 0 00-2.7 5.36v14.3a7.25 7.25 0 002.7 5.35 7.27 7.27 0 00-2.7 5.36v14.67c.49 7.85 15.85 12.06 30.38 12.06 14.52 0 29.89-4.21 30.37-12.1.02-.12.02-.24 0-.37v-14.3a7.15 7.15 0 00-2.7-5.35 7.25 7.25 0 002.7-5.36zm-3.57 26.8c0 4.22-11.47 8.94-26.8 8.94s-26.8-4.67-26.8-8.94v-8.21c5.46 4.14 16.36 6.32 26.8 6.32 10.43 0 21.33-2.18 26.8-6.32z"/>
                    <path fill="#FFF" d="M40.2 193.17a2.23 2.23 0 11-4.47 0 2.23 2.23 0 014.47 0zM40.2 218.18a2.23 2.23 0 11-4.47 0 2.23 2.23 0 014.47 0zM40.2 243.2a2.23 2.23 0 11-4.47 0 2.23 2.23 0 014.47 0zM63.87 235.98a1.8 1.8 0 01-.89-.25 1.79 1.79 0 01-.82-2.06l10.04-33.43H62.09a1.79 1.79 0 01-1.6-2.64l10.73-21.44c.3-.6.91-.98 1.59-.98h23.22a1.79 1.79 0 011.79 2.34l-4.57 13.74h10.02a1.79 1.79 0 011.29 3.02l-39.31 41.09c-.35.4-.85.62-1.38.6zm1.11-39.3h9.61a1.79 1.79 0 011.72 2.28l-8.6 28.58L99 194.84h-8.33a1.79 1.79 0 01-1.78-2.35l4.57-13.72H73.81z"/>
                </g>
            </g>
        </g>
        <g clip-path="url(#f)">
            <g clip-path="url(#g)">
                <g clip-path="url(#h)">
                    <path fill="url(#i)" d="M144 144h134v134H144z"/>
                    <path fill="#FFF" d="M211 166.33a44.67 44.67 0 00-36.25 70.74l2.9-2.1a41.1 41.1 0 1166.7 0l2.9 2.1A44.67 44.67 0 00211 166.33z"/>
                    <path fill="#FFF" d="M234.23 237.12v-6.47c0-.98-.8-1.78-1.79-1.78h-19.65v-10.72h19.65c.99 0 1.79-.8 1.79-1.79v-26.8c0-.99-.8-1.79-1.79-1.79h-42.88c-.99 0-1.79.8-1.79 1.79v26.8c0 .99.8 1.79 1.79 1.79h19.65v10.72h-19.65c-.99 0-1.79.8-1.79 1.78v6.47a8.04 8.04 0 103.58 0v-4.68h17.86v7.36a8.04 8.04 0 103.58 0v-7.36h17.86v4.68a8.04 8.04 0 103.58 0zm-15.6-34.07l12.02-9.74v19.33zm-7.63 1.57l-16.4-13.27h32.8zm-7.7-1.66l-11.95 9.65v-19.3zm2.84 2.3l3.73 3.06c.66.53 1.6.53 2.26 0l3.57-2.97 11.54 9.22h-32.62zm-12.11 39.69a4.47 4.47 0 11-8.94 0 4.47 4.47 0 018.94 0zm21.44 2.68a4.47 4.47 0 11-8.94 0 4.47 4.47 0 018.94 0zm16.97 1.78a4.47 4.47 0 110-8.93 4.47 4.47 0 010 8.93z"/>
                </g>
            </g>
        </g>
        <g clip-path="url(#j)">
            <g clip-path="url(#k)">
                <g clip-path="url(#l)">
                    <path fill="url(#m)" d="M287 144h134v134H287z"/>
                    <path fill="#FFF" d="M396.88 253.88h-12.5v-3.57h10.71v-78.62h-82.18v78.62h50.02v3.57h-51.81c-.99 0-1.79-.8-1.79-1.79v-82.18c0-.99.8-1.79 1.79-1.79h85.76c.99 0 1.79.8 1.79 1.79v82.18c0 .99-.8 1.79-1.79 1.79z"/>
                    <path fill="#FFF" d="M311.12 182.41h85.76V186h-85.76zM316.48 175.27h3.57v3.57h-3.57zM323.63 175.27h3.57v3.57h-3.57zM330.77 175.27h3.58v3.57h-3.58zM329.88 234.78l-2.52-2.54 15.88-15.86-15.88-15.89 2.52-2.53 17.15 17.15a1.79 1.79 0 010 2.52zM350.43 225.3h26.8v3.57h-26.8z"/>
                </g>
            </g>
        </g>
        <g clip-path="url(#n)">
            <g clip-path="url(#o)">
                <g clip-path="url(#p)">
                    <path fill="url(#q)" d="M433 144h134v134H433z"/>
                    <path fill="#FFF" d="M478.35 196.76c-13.85 0-28.6-4.2-28.6-11.97 0-7.77 14.71-11.97 28.6-11.97 13.88 0 28.58 4.2 28.58 11.97 0 7.77-14.76 11.97-28.58 11.97zm0-20.37c-14.3 0-25.02 4.43-25.02 8.4 0 3.97 10.72 8.4 25.02 8.4 14.29 0 25-4.43 25-8.4 0-3.97-10.73-8.4-25-8.4z"/>
                    <path fill="#FFF" d="M503.41 185.33H507v30.37h-3.58zM478.33 254.77c-13.83 0-28.59-4.14-28.59-11.84v-57.6h3.57v57.63c0 3.93 10.72 8.31 25.02 8.31 14.3 0 25.01-4.38 25.01-8.3v-5.83h3.57v5.82c.08 7.7-14.74 11.81-28.58 11.81z"/>
                    <path fill="#FFF" d="M478.35 216.95c-13.83 0-28.6-4.2-28.6-11.97h3.58c0 3.97 10.72 8.4 25.02 8.4 14.29 0 25-4.44 25-8.4h3.58c-.03 7.77-14.74 11.97-28.58 11.97zM478.47 236.6c-13.83 0-28.59-4.2-28.59-11.97h3.58c0 3.97 10.72 8.4 25.01 8.4 5.85.08 11.67-.77 17.26-2.5l1.14 3.38a59.05 59.05 0 01-18.4 2.7z"/>
                    <path fill="#FFF" d="M520.28 256.33c-.99 0-1.79-.8-1.79-1.79 0-12.27-14.02-26.33-26.35-26.33a1.79 1.79 0 110-3.58c12.3 0 26.35-14.04 26.35-26.35a1.79 1.79 0 113.58 0c0 12.3 14.02 26.35 26.35 26.35a1.79 1.79 0 010 3.58c-12.33 0-26.35 14.02-26.35 26.33 0 .99-.8 1.79-1.8 1.79zm-19.39-29.91a36.67 36.67 0 0119.39 19.42 36.59 36.59 0 0119.44-19.42 36.63 36.63 0 01-19.44-19.44 36.7 36.7 0 01-19.39 19.44zM528.43 183.54H532v10.72h-3.57z"/>
                    <path fill="#FFF" d="M524.85 187.11h10.72v3.58h-10.72zM508.77 165.67h3.58v10.72h-3.58z"/>
                    <path fill="#FFF" d="M505.2 169.25h10.72v3.57H505.2z"/>
                </g>
            </g>
        </g>
        <g clip-path="url(#r)">
            <g clip-path="url(#s)">
                <g clip-path="url(#t)">
                    <path fill="url(#u)" d="M0 289h134v134H0z"/>
                    <path fill="#FFF" d="M48.76 365.72c2.25.8 4.61 1.24 7 1.32 1.54.13 3.06-.3 4.3-1.21 1-.92 1.55-2.22 1.5-3.58.12-1.4-.39-2.8-1.4-3.78a7.15 7.15 0 00-4.58-1.18c-1.9.01-3.82.13-5.71.35v-2.53l.7-11.03h13.45v2.99H53.6l-.48 7.48c1.18-.22 2.37-.34 3.57-.36a8.8 8.8 0 016.24 2.1 7.56 7.56 0 012.23 5.78 7.27 7.27 0 01-2.6 5.85 10.29 10.29 0 01-6.9 2.23 17 17 0 01-7.04-1.48zM77.95 355h.66a8.26 8.26 0 015.86 1.9 6.84 6.84 0 012.15 5.35 7.15 7.15 0 01-2.65 5.74c-2 1.52-4.47 2.28-6.98 2.16a16.98 16.98 0 01-6.85-1.48v-2.95c2.2.8 4.51 1.24 6.85 1.32a6.6 6.6 0 004.32-1.25 4.36 4.36 0 001.5-3.57c0-2.97-1.87-4.45-5.63-4.45-1.19 0-2.38.05-3.57.18v-2.43l7.74-8.45H70.54v-3.02h15v2.9z"/>
                    <path fill="#FFF" d="M67 389.95a1.8 1.8 0 01-.9-.25 59.27 59.27 0 00-18.72-7.15c-3.77-.68-16.08-3.57-16.08-12.5 0-4.05 1.56-6.73 3.58-10.12a27.98 27.98 0 004.84-14.67 26.05 26.05 0 00-4.25-14.17c-.42-.65-.37-1.49.12-2.09l2.86-3.57c.55-.68 1.5-.86 2.27-.43a24.47 24.47 0 0012.06 3.3c4.72.07 9.35-1.38 13.18-4.14a1.79 1.79 0 012.08 0 22.04 22.04 0 0013.18 4.15 24.46 24.46 0 0012.1-3.33 1.79 1.79 0 012.27.43l2.86 3.58c.48.6.53 1.44.12 2.09a26.02 26.02 0 00-4.25 14.16c0 6.35 2.57 10.72 4.82 14.67 1.98 3.4 3.58 6.08 3.58 10.11 0 8.94-12.3 11.89-16.08 12.51a59.26 59.26 0 00-18.73 7.15 1.8 1.8 0 01-.91.27zm-27.87-59.86c2.7 4.53 4.12 9.7 4.13 14.98 0 7.3-2.95 12.38-5.36 16.45-1.8 3.16-3.04 5.25-3.04 8.33 0 6.36 10.91 8.64 13.11 9.04a62.33 62.33 0 0119 7.14 62.33 62.33 0 0118.99-7.14c2.2-.4 13.11-2.68 13.11-9.04 0-3.08-1.21-5.17-3.04-8.33-2.37-4.07-5.36-9.15-5.36-16.45a29.37 29.37 0 014.2-14.98l-1.12-1.39c-3.87 2-8.16 3.05-12.51 3.07a25.77 25.77 0 01-14.3-4.1 25.77 25.77 0 01-14.29 4.1 27.58 27.58 0 01-12.5-3.07z"/>
                    <path fill="#FFF" d="M67 400.67c-.4 0-.8-.14-1.13-.4a53.59 53.59 0 00-20.1-8.93c-14.68-2.64-23.45-10.72-23.45-21.44a27.32 27.32 0 014.73-14.63c1.95-3.34 3.57-6.24 3.57-10.15a19.24 19.24 0 00-6.5-13.63 1.79 1.79 0 01-.25-2.65c0-.12 10.49-12.7 12.86-15.97.33-.45.84-.73 1.4-.75.55-.05 1.09.16 1.46.57a18.47 18.47 0 0013.13 6.54c4.99 0 8.94-2.22 12.74-7.15a1.93 1.93 0 012.97 0c3.82 5 7.75 7.15 12.74 7.15 5.09-.27 9.84-2.64 13.13-6.54.37-.4.91-.62 1.47-.57.55.02 1.07.3 1.39.75 2.38 3.27 12.77 15.85 12.86 15.97.33.38.49.88.43 1.38-.05.5-.3.95-.68 1.27a19.25 19.25 0 00-6.5 13.63c0 3.91 1.68 6.8 3.57 10.15a27.32 27.32 0 014.74 14.63c0 10.72-8.77 18.8-23.46 21.44a53.07 53.07 0 00-20.08 8.93c-.3.24-.66.38-1.04.4zM27.89 329.9a22.35 22.35 0 016.5 15.24c0 4.91-2.09 8.52-4.1 12-2.19 3.77-4.26 7.31-4.26 12.78 0 13.08 15.62 16.9 20.4 17.76A55.99 55.99 0 0167 396.5a55.98 55.98 0 0120.55-8.82c4.78-.86 20.4-4.68 20.4-17.76 0-5.47-2.07-8.94-4.25-12.78-2.02-3.57-4.11-7.14-4.11-12a22.35 22.35 0 016.5-15.24 743.28 743.28 0 01-10.6-13.1 21.3 21.3 0 01-14.29 6.18 18.15 18.15 0 01-14.29-6.9 18.15 18.15 0 01-14.3 6.9 21.3 21.3 0 01-14.29-6.18c-2.59 3.66-8.09 10.26-10.43 13.1z"/>
                </g>
            </g>
        </g>
        <g clip-path="url(#v)">
            <g clip-path="url(#w)">
                <g clip-path="url(#x)">
                    <path fill="url(#y)" d="M144 289h134v134H144z"/>
                    <path fill="#FFF" d="M209.1 372.12h-25c-9.8 0-17.28-6.54-17.78-15.53v-1.23a16.5 16.5 0 0112.13-16.58v-1.43a24.37 24.37 0 0141.84-16.53 27.3 27.3 0 015.61 8.02 11.02 11.02 0 016.91-2.43c5.19 0 10.72 3.7 11.64 11.94 4.4.87 8.37 3.22 11.25 6.66l-2.8 2.2a17.02 17.02 0 00-10.38-5.65 1.79 1.79 0 01-1.5-1.66c-.42-6.84-4.42-9.91-8.2-9.91a7.7 7.7 0 00-6.11 3.1c-.4.53-1.04.8-1.69.7a1.79 1.79 0 01-1.4-1.16 24.7 24.7 0 00-5.81-9.24 20.81 20.81 0 00-35.74 13.96c0 .85.05 1.7.15 2.55.09.88-.48 1.7-1.34 1.91-4.06 1-10.9 4.11-10.9 13.55-.02.32-.02.64 0 .96.4 7.15 6.38 12.22 14.3 12.22h25z"/>
                    <path fill="#FFF" d="M234.12 398.45c-21.19 0-21.44-23.81-21.44-24.05v-21.74c0-.75.46-1.42 1.16-1.68l19.65-7.27c.4-.14.85-.14 1.25 0l19.66 7.27c.7.26 1.16.93 1.16 1.68v23.08c0 .24-.25 22.71-21.44 22.71zm-17.87-44.54v20.5c0 .83.25 20.47 17.87 20.47s17.87-18.35 17.87-19.14v-21.83l-17.87-6.63z"/>
                    <path fill="#FFF" d="M234.12 391.77c-11.36 0-14.15-14.42-14.3-15.03a.96.96 0 010-.32v-18.5c0-.74.45-1.4 1.13-1.67l12.5-4.93c.43-.17.9-.17 1.33 0l12.5 4.93c.69.27 1.13.93 1.13 1.66V376.74c-.14.61-2.93 15.03-14.3 15.03zm-10.72-15.53c.28 1.36 2.84 11.96 10.72 11.96 7.88 0 10.43-10.58 10.72-11.96v-17.11l-10.72-4.22-10.72 4.22z"/>
                </g>
            </g>
        </g>
        <g clip-path="url(#z)">
            <g clip-path="url(#A)">
                <g clip-path="url(#B)">
                    <path fill="url(#C)" d="M287 289h134v134H287z"/>
                    <path fill="#FFF" d="M375.51 357.79a11.12 11.12 0 100-3.58h-13.33c-.2-3.29-1.05-6.5-2.5-9.47l16.08-13.6a11.11 11.11 0 10-4.21-8.7c-.03 2.16.6 4.28 1.78 6.08l-15.54 13.1a25.9 25.9 0 100 28.76l15.54 13.1a11.1 11.1 0 102.43-2.63l-16.08-13.6a25.23 25.23 0 002.5-9.46zm10.94-9.33a7.54 7.54 0 11-7.53 7.56V356a7.54 7.54 0 017.53-7.54zm-3.72-33.55a7.54 7.54 0 110 15.07 7.54 7.54 0 010-15.07zm0 67.12a7.54 7.54 0 11-7.54 7.54v-.02a7.54 7.54 0 017.54-7.52zm-46.38-3.7a22.33 22.33 0 110-44.66 22.33 22.33 0 010 44.66z"/>
                </g>
            </g>
        </g>
        <g clip-path="url(#D)">
            <g clip-path="url(#E)">
                <g clip-path="url(#F)">
                    <path fill="url(#G)" d="M433 289h134v134H433z"/>
                    <path fill="#FFF" d="M515.44 397.4l-3.18-1.65a53.2 53.2 0 004.05-10.1l3.43 1a57.12 57.12 0 01-4.3 10.75zm3.32-32.72a56.94 56.94 0 00-9.42-28.01l2.99-1.95a60.4 60.4 0 0110 29.75zm-23.57-43.1a53.65 53.65 0 00-8.25-5.08l1.63-3.18a57.05 57.05 0 018.79 5.36zM509.83 369.22a53.45 53.45 0 00-19.96-12.5l1.1-3.4a57 57 0 0121.27 13.31zM524.55 390.55a52.18 52.18 0 00-2.23-5.09l3.2-1.59a58.6 58.6 0 012.37 5.36z"/>
                    <path fill="#FFF" d="M514.42 398.25l-1.14-3.37a40.03 40.03 0 0011.84-6.38l2.2 2.82a43.52 43.52 0 01-12.9 6.94zM457.62 355.1l-.82-3.46c3.96-.97 8.02-1.5 12.1-1.59l.08 3.57c-3.83.08-7.64.58-11.36 1.49zM486.92 343.74l-3-1.94a51.24 51.24 0 019.6-11.44l2.35 2.7a47.6 47.6 0 00-8.95 10.68zM513.49 322.55l-1.22-3.36c2.7-1 5.46-1.8 8.28-2.35l.66 3.57c-2.63.5-5.21 1.21-7.72 2.14zM478.11 394.41a56.32 56.32 0 01-4.59-21.44 38.8 38.8 0 011.1-8.43c.13-.63.28-1.27.4-1.93l3.58.7-.4 1.96c-.62 2.52-.97 5.1-1.03 7.7a52.8 52.8 0 004.25 20.16z"/>
                    <path fill="#FFF" d="M500 400.67c-24.67 0-44.67-20-44.67-44.67 0-.91 0-1.79.1-2.7a44.67 44.67 0 0131.81-40.1 44.67 44.67 0 0140.07 78.15 45.03 45.03 0 01-27.31 9.32zm0-85.76a40.3 40.3 0 00-11.74 1.78A41.1 41.1 0 00459 353.55c0 .84-.1 1.65-.1 2.45a41.1 41.1 0 0066.22 32.5A41.1 41.1 0 00500 314.9z"/>
                    <path fill="#FFF" d="M504.34 335.33a7.91 7.91 0 117.92-7.92v.02a7.9 7.9 0 01-7.9 7.9h-.02zm0-12.24a4.34 4.34 0 100 8.68 4.34 4.34 0 000-8.68zM479.97 360.25a7.91 7.91 0 110-15.83 7.91 7.91 0 010 15.83zm0-12.25a4.34 4.34 0 104.34 4.34 4.34 4.34 0 00-4.3-4.38h-.04zM519.26 383.16a7.91 7.91 0 117.9-7.94v.04a7.9 7.9 0 01-7.9 7.9zm0-12.24a4.34 4.34 0 104.32 4.36v-.02c0-2.4-1.93-4.33-4.32-4.34z"/>
                </g>
            </g>
        </g>
        <g clip-path="url(#H)">
            <g clip-path="url(#I)">
                <g clip-path="url(#J)">
                    <path fill="url(#K)" d="M0 433h134v134H0z"/>
                    <path fill="#FFF" d="M97.52 523.98v.94a4.17 4.17 0 010-.94zM74.06 488.39l-.18.34c.07-.11.12-.24.16-.36z"/>
                    <path fill="#FFF" d="M58.57 482.19c-1.6 0-15.64-.13-15.64 5.18a2.54 2.54 0 00.36 1.36l9.72 21.44v11.1c0 1.12.46 1.78 1.45 1.78h.46a15.66 15.66 0 006.11-3.16l1.2-.84c.52-.33.83-.9.84-1.5v-7.33l10.8-21.44a2.53 2.53 0 00.34-1.34c0-5.38-14.04-5.25-15.64-5.25zm0 3.28c6.3 0 10.36 1.11 11.72 1.9-1.36.78-5.36 1.9-11.72 1.9s-10.35-1.12-11.7-1.9c1.37-.77 5.39-1.9 11.7-1.9zm1.3 23.23v8.15l-.7.43c-1.01.59-1.9 1-2.93 1.53v-8.98c0-.25-.05-.49-.14-.72l-7.61-17.4a46.34 46.34 0 0019.87.07z"/>
                    <path fill="#FFF" d="M91.12 531.57a40.74 40.74 0 01-24.05 7.74c-19.44 0-36.02-12.63-39.91-31.27a8.06 8.06 0 007.47-6.24h9.1v-3.37h-9.07a8.02 8.02 0 00-7.47-6.47 41.1 41.1 0 0163.25-23.98l2.04-2.82a44.67 44.67 0 00-69.11 27.59 8 8 0 000 14.52 44.67 44.67 0 0043.7 35.61 44.26 44.26 0 0026.05-8.41zM22.33 500a4.47 4.47 0 013.93-4.47h.54a4.47 4.47 0 11-4.45 4.49V500z"/>
                    <path fill="#FFF" d="M107.2 508.04a8.04 8.04 0 10-7.86-9.7h-9.3v-22.1h4.83a8.04 8.04 0 10.14-2.88l-6.57-.09a1.48 1.48 0 00-1.79 1.57v23.45H72.91v3.3h13.74v23.37c0 .99.8 1.79 1.79 1.79h5.61a8.04 8.04 0 100-3.17h-3.9l-.08-22h9.27a8.06 8.06 0 007.86 6.46zm0-12.5a4.47 4.47 0 110 8.93 4.47 4.47 0 010-8.94zm-4.47-24.86a4.45 4.45 0 11-4.46 4.43v-.02c0-2.45 1.99-4.44 4.45-4.44h.03zm-.89 49.87a4.47 4.47 0 11-4.41 5.02v-.54a4.48 4.48 0 014.41-4.48z"/>
                </g>
            </g>
        </g>
        <g clip-path="url(#L)">
            <g clip-path="url(#M)">
                <g clip-path="url(#N)">
                    <path fill="url(#O)" d="M144 433h134v134H144z"/>
                    <path fill="#FFF" d="M182.75 472.3a39.63 39.63 0 0165.4 14.94l3.37-1.18a43.2 43.2 0 00-81.56 0l3.38 1.18a39.01 39.01 0 019.41-14.93zM238.7 527.7a39.65 39.65 0 01-65.45-15.05l-3.38 1.18a43.2 43.2 0 0081.67-.14l-3.38-1.15a39.3 39.3 0 01-9.47 15.15zM180 499.93a10.43 10.43 0 10-20.87-.03 10.43 10.43 0 0020.87.03zm-5.63 4.84a7.02 7.02 0 01-9.66 0 6.84 6.84 0 019.66-9.66 6.84 6.84 0 010 9.66zM259.78 492.7a10.4 10.4 0 100 14.7 10.4 10.4 0 000-14.7zm-2.54 12.16a6.83 6.83 0 01-9.67-9.63l.02-.02a6.83 6.83 0 119.65 9.65z"/>
                    <path fill="#FFF" d="M196.13 517.3c7.33-7.33 22.25-7.33 29.57 0a1.79 1.79 0 002.52-2.54 20.84 20.84 0 01-5.36-14.78 20.86 20.86 0 015.36-14.77 1.79 1.79 0 00-2.52-2.52c-7.32 7.3-22.24 7.3-29.56 0a1.79 1.79 0 00-2.52 2.52 20.85 20.85 0 015.44 14.77 20.83 20.83 0 01-5.44 14.78c-.34.34-.53.8-.52 1.27a1.78 1.78 0 003.03 1.26zm4.63-27.45a27.88 27.88 0 0020.32 0 28.33 28.33 0 000 20.28 27.88 27.88 0 00-20.32 0 28.33 28.33 0 000-20.28z"/>
                    <path fill="#FFF" d="M232.67 507.3l6.02-6.09c.7-.7.7-1.82 0-2.51l-6.05-6.06-2.54 2.52 3.06 3.03h-8.08v3.58h8.07l-3.02 3.02zM189.49 507.34l6.1-6.09c.68-.7.68-1.82 0-2.52l-6.1-6.1-2.52 2.53 3.04 3.03h-7.81v3.58h7.8l-3.03 3.05z"/>
                </g>
            </g>
        </g>
        <g clip-path="url(#P)">
            <g clip-path="url(#Q)">
                <g clip-path="url(#R)">
                    <path fill="url(#S)" d="M287 433h134v134H287z"/>
                    <path fill="#FFF" d="M398.67 495.53a14.3 14.3 0 01-13.4 14.51h-25.91v-3.57h25.9c.26 0 9.92-1.07 9.92-10.96 0-8.28-6.93-10.36-9.9-10.88a1.79 1.79 0 01-1.46-2.03c0-3.58-1.5-6.13-4.13-6.99a5.75 5.75 0 00-6.52 2.06c-.4.56-1.1.83-1.79.7a1.78 1.78 0 01-1.4-1.17 19.37 19.37 0 00-4.37-7.3 15.97 15.97 0 00-18.04-3.58 16.08 16.08 0 00-7.86 7.99h-3.93a19.94 19.94 0 0110.34-11.28 19.55 19.55 0 0121.96 4.33 22.01 22.01 0 014.29 6.14 9.29 9.29 0 018.34-1.2 9.93 9.93 0 016.54 9.2c5.75 1.38 11.42 5.73 11.42 14.03zm-50.03-1.55v-12.5h-35.73v53.6h35.73V504.7h3.57v32.16c0 .99-.8 1.79-1.78 1.79h-39.31c-.99 0-1.79-.8-1.79-1.8V479.7c0-1 .8-1.8 1.79-1.8h39.3c1 0 1.8.8 1.8 1.8v14.29zm23.23 3.57h-53.6v3.58h53.6zm-39.31-8.93h-14.3v3.57h14.3zm5.36 17.87h-19.65v3.57h19.65zm-7.3 8.93h-12.28v3.57h12.27zm12.66 0h-8.93v3.57h8.93zm39.3-17.87h-7.14v3.58h7.15z"/>
                </g>
            </g>
        </g>
        <g clip-path="url(#T)">
            <g clip-path="url(#U)">
                <g clip-path="url(#V)">
                    <path fill="url(#W)" d="M433 433h134v134H433z"/>
                    <path fill="#FFF" d="M489.28 518.76h-19.65a10.91 10.91 0 01-5.61-1.68 18.19 18.19 0 01-8.69-15.88 16.24 16.24 0 0111.62-16.39v-1.39c.2-9.26 5.6-17.61 13.97-21.58 9.03-4 19.6-1.9 26.42 5.23a26.88 26.88 0 015.36 7.86 10.47 10.47 0 016.58-2.32c4.86 0 10.33 3.68 11.33 11.76 4.59 1.09 14.02 4.84 14.02 16.99a16.08 16.08 0 01-8.45 14.99l-1.79-3.13a12.65 12.65 0 006.61-11.86c0-10.5-8.7-13.12-12.5-13.76a1.79 1.79 0 01-1.16-.75 1.78 1.78 0 01-.3-1.29c-.53-6.48-4.31-9.38-7.87-9.38a7.15 7.15 0 00-5.77 3.02c-.39.54-1.04.81-1.7.72-.65-.1-1.2-.56-1.4-1.18a24.3 24.3 0 00-5.62-9.15c-5.79-6-14.7-7.77-22.35-4.43a21.01 21.01 0 00-11.81 18.22c0 .83.05 1.65.14 2.47.12.94-.51 1.81-1.44 1.98a12.94 12.94 0 00-10.33 13.37 14.53 14.53 0 007.02 12.86c1.11.71 2.4 1.1 3.72 1.13h19.65z"/>
                    <path fill="#FFF" d="M542.68 529.48L530 516.74a18.96 18.96 0 10-8.68 9.17l12.5 12.5a6.29 6.29 0 004.47 1.79 6.22 6.22 0 004.4-10.72zm-30-5.06a15.35 15.35 0 110-30.7 15.35 15.35 0 010 30.7zm27.52 11.4a2.8 2.8 0 01-3.86 0l-11.9-11.9a18.68 18.68 0 003.79-4l11.97 12.04a2.75 2.75 0 010 3.86z"/>
                    <path fill="#FFF" d="M517.6 500.77l-2.13 2.88a6.02 6.02 0 00-9.54 5.71 5.9 5.9 0 002.38 4.04l-2.06 2.79a9.6 9.6 0 0111.42-15.42z"/>
                </g>
            </g>
        </g>
        <g clip-path="url(#X)">
            <g clip-path="url(#Y)">
                <g clip-path="url(#Z)">
                    <path fill="url(#aa)" d="M0 0h134v134H0z"/>
                    <path fill="#FFF" d="M108.08 72.36h-8.94v-3.57h8.94V25.9H65.2v8.93h-3.58v-8.93c0-1.98 1.6-3.58 3.58-3.58h42.88c1.97 0 3.57 1.6 3.57 3.58v42.88c0 1.97-1.6 3.57-3.58 3.57zM68.77 111.67H25.89a3.57 3.57 0 01-3.57-3.58V65.21c0-1.97 1.6-3.57 3.57-3.57h8.93v3.57H25.9v42.88h42.88v-8.93h3.57v8.93c0 1.98-1.6 3.58-3.57 3.58z"/>
                    <path fill="#FFF" d="M95.59 50.92v-3.57h-5.36a3.9 3.9 0 00-3.58-3.58v-5.36h-3.57v5.36h-5.36v-5.36h-3.57v5.36h-5.36v-5.36H65.2v5.36h-5.36v-5.36h-3.57v5.36h-5.36v-5.36h-3.57v5.36a3.9 3.9 0 00-3.58 3.58h-5.36v3.57h5.36v5.36h-5.36v3.57h5.36v5.36h-5.36v3.58h5.36v5.36h-5.36v3.57h5.36v5.36h-5.36v3.57h5.36a3.9 3.9 0 003.58 3.58v5.36h3.57v-5.36h5.36v5.36h3.57v-5.36h5.36v5.36h3.58v-5.36h5.36v5.36h3.57v-5.36h5.36v5.36h3.57v-5.36a3.9 3.9 0 003.58-3.58h5.36v-3.57h-5.36v-5.36h5.36v-3.57h-5.36v-5.36h5.36V65.2h-5.36v-5.36h5.36v-3.57h-5.36v-5.36zm-8.94 35.41c0 .18-.14.32-.32.32H47.67a.32.32 0 01-.32-.32V47.67c0-.18.14-.32.32-.32h38.66c.18 0 .32.14.32.32z"/>
                </g>
            </g>
        </g>
        <g clip-path="url(#ab)">
            <g clip-path="url(#ac)">
                <g clip-path="url(#ad)">
                    <path fill="url(#ae)" d="M144 0h134v134H144z"/>
                    <path fill="#FFF" d="M250.3 53.7v36.54l-32.15 18.59V94.96L236 84.66a3.57 3.57 0 001.79-2.62 9 9 0 000-1.39V60.32l12.5-7.15m2.53-5.36c-.19 0-.36.04-.52.13l-17.06 9.86c-.33.18-1.02.5-1.02.91v21.94c.02.3.02.6 0 .91L215.1 92.6c-.32.19-.52.53-.52.9v19.66c0 .58.47 1.05 1.06 1.05.18 0 .36-.05.51-.14l37.22-21.44c.32-.2.52-.54.52-.91V48.72c0-.57-.47-1.03-1.04-1.03h-.02z"/>
                    <path fill="#FFF" d="M208.18 116.03c-.5 0-.99-.13-1.41-.38l-37.24-21.44a2.82 2.82 0 01-1.41-2.45V44.43c0-1 .54-1.94 1.41-2.44l40.95-23.64a2.79 2.79 0 012.84 0l37.22 21.44a2.84 2.84 0 010 4.91L211 67.57v45.63a2.79 2.79 0 01-2.82 2.83zm-36.49-24.75l35.74 20.62V67.14c0-1.01.53-1.95 1.4-2.46l38.8-22.37-35.74-20.64-40.18 23.23zm39.83-69.84z"/>
                </g>
            </g>
        </g>
        <g clip-path="url(#af)">
            <g clip-path="url(#ag)">
                <g clip-path="url(#ah)">
                    <path fill="url(#ai)" d="M287 0h134v134H287z"/>
                    <path fill="#FFF" d="M353.63 115.13c-.34 0-.67-.08-.95-.25L312 91.44a1.9 1.9 0 01-.94-1.64V42.3c0-.67.36-1.3.94-1.64l37.4-21.54a1.79 1.79 0 012.8 1.6V41.3c0 .65-.34 1.25-.89 1.59l-18.7 10.72v24.9l21.06 12.17 18.42-10.72a1.79 1.79 0 011.79 0l17.72 10.19c.59.34.95.96.95 1.64.01.68-.35 1.3-.95 1.63l-37.07 21.44c-.28.17-.6.27-.92.28zm-38.94-26.62l39.9 23.03 34.25-19.8-14.3-8.23-18.99 10.97c-.6.34-1.34.34-1.94 0l-23.73-13.69a1.88 1.88 0 01-.95-1.62V52.64c-.01-.68.35-1.31.95-1.63l18.7-10.72v-16.4l-33.94 19.65z"/>
                    <path fill="#FFF" d="M394.99 87.55c-.34 0-.66-.1-.95-.25l-17.7-10.24c-.6-.32-.97-.95-.95-1.63V53.8L356.68 43a1.88 1.88 0 01-.95-1.62V20.8c-.01-.66.35-1.28.93-1.6a1.79 1.79 0 011.79 0l37.54 21.56c.58.33.94.96.94 1.63v43.18c0 .68-.36 1.3-.94 1.65-.3.2-.65.3-1 .32zM379 74.24l14.3 8.21V43.6l-33.95-19.65v16.31l18.76 10.87c.6.31.96.94.95 1.62z"/>
                </g>
            </g>
        </g>
        <g clip-path="url(#aj)">
            <g clip-path="url(#ak)">
                <g clip-path="url(#al)">
                    <path fill="url(#am)" d="M433 0h134v134H433z"/>
                    <path fill="#FFF" d="M541.1 111.67h-22.02c-.69 0-1.31-.4-1.6-1.02l-31.13-65.09h-13.17c-.99 0-1.79-.8-1.79-1.79V24.12c0-.99.8-1.79 1.8-1.79h27.5c.7 0 1.32.4 1.62 1.02l30.98 65.09h7.8c.99 0 1.79.8 1.79 1.79v19.65c0 .99-.8 1.79-1.79 1.79zm-20.9-3.58h19.1V92.01h-7.14c-.69 0-1.31-.4-1.6-1.02l-30.99-65.08H475v16.08h12.5c.7 0 1.32.4 1.61 1.02z"/>
                    <path fill="#FFF" d="M482.1 111.67h-23.23c-.62 0-1.2-.32-1.52-.84a1.79 1.79 0 01-.09-1.79l24.3-50.76a1.79 1.79 0 013.22-.02L496.4 82.2c.24.49.24 1.06 0 1.55l-12.69 26.8c-.26.67-.9 1.11-1.62 1.13zm-20.37-3.58h19.24l11.85-25.01-9.63-19.92z"/>
                </g>
            </g>
        </g>
    </g>
</svg>