<svg xmlns="http://www.w3.org/2000/svg" viewBox="0 0 297 297">
	<g>
		<path d="M238.193,32.616c-3.542,0-6.424-2.882-6.424-6.424s2.882-6.424,6.424-6.424c5.458,0,9.883-4.425,9.883-9.884
			c0-5.459-4.425-9.884-9.883-9.884H75.115C60.673,0,48.924,11.749,48.924,26.191v212.001c0,5.458,4.425,9.883,9.884,9.883H81.54
			v39.04c0,3.645,2.007,6.994,5.22,8.714c3.215,1.723,7.115,1.531,10.146-0.49l18.979-12.653l18.979,12.653
			c1.653,1.103,3.565,1.66,5.483,1.66c1.598,0,3.202-0.387,4.663-1.17c3.213-1.72,5.22-5.069,5.22-8.714v-39.04h87.963
			c5.458,0,9.883-4.425,9.883-9.883V42.499C248.076,37.041,243.651,32.616,238.193,32.616z M75.115,19.767h137.684
			c-0.521,2.057-0.797,4.208-0.797,6.424s0.276,4.367,0.797,6.424H75.115c-3.542,0-6.424-2.882-6.424-6.424
			S71.573,19.767,75.115,19.767z M130.463,268.648l-9.096-6.063c-1.66-1.107-3.571-1.66-5.482-1.66s-3.822,0.553-5.482,1.66
			l-9.096,6.063v-20.572h29.156V268.648z M228.309,228.309H68.691V51.583c2.057,0.52,4.208,0.8,6.424,0.8h153.194V228.309z"/>
</svg>
