<svg xmlns="http://www.w3.org/2000/svg" viewBox="0 0 512 512"><path d="M299.13 13.36A20 20 0 01285 47.5h-63v34h6c5.52 0 10.52 2.24 14.14 5.86S248 95.98 248 101.5a20 20 0 01-20 20h-40v46h-34v-46h-6c-5.52 0-10.52-2.24-14.14-5.86S128 107.02 128 101.5a20 20 0 0120-20h40v-34h-14c-5.52 0-10.52-2.24-14.14-5.86S154 33.02 154 27.5a20 20 0 0120-20h111c5.52 0 10.52 2.24 14.14 5.86z" fill="#e4e7e9"/><path d="M172.89 146.4a6 6 0 00-6-6 19.9 19.9 0 01-12.9-4.73v31.83h18.9v-21.1z" fill="#d8cec5"/><path d="M314.04 189.5a8.4 8.4 0 018.35 9.18L294.21 496.9a8.38 8.38 0 01-8.35 7.6H124.12a8.38 8.38 0 01-8.35-7.6L87.6 198.68a8.4 8.4 0 018.35-9.18h218.1z" fill="#937254"/><path d="M205.13 496.9l-28.18-298.22a8.4 8.4 0 018.35-9.18H95.93a8.4 8.4 0 00-8.35 9.18l28.18 298.22a8.38 8.38 0 008.35 7.6h89.35a8.38 8.38 0 01-8.34-7.6z" fill="#825530"/><path d="M332.3 264.5c4.82 0 8.6 4.15 8.14 8.95L326.5 421.09a8.19 8.19 0 01-8.15 7.41H91.64a8.19 8.19 0 01-8.15-7.41L69.54 273.45a8.18 8.18 0 018.15-8.95h254.6z" fill="#f7d9a4"/><path d="M180.95 421.09L167 273.45a8.18 8.18 0 018.15-8.95H77.69a8.18 8.18 0 00-8.15 8.95L83.5 421.09a8.19 8.19 0 008.15 7.41h97.46a8.19 8.19 0 01-8.15-7.41z" fill="#efc27b"/><path d="M324 161.5a14 14 0 010 28H86a14 14 0 010-28h238z" fill="#f7d9a4"/><path d="M164.51 178.86a14 14 0 01-13.57-17.36H85.99a14 14 0 100 28h238a14 14 0 0013.58-10.64H164.5z" fill="#efc27b"/><path d="M309.85 300.85c-56.15 0-101.65 45.51-101.65 101.65 0 56.06 45.37 101.51 101.4 101.65l.24.35h31V300.85h-31z" fill="#cccdce"/><path d="M340.84 300.85c56.14 0 101.65 45.51 101.65 101.65S397 504.15 340.84 504.15 239.2 458.64 239.2 402.5s45.5-101.65 101.64-101.65z" fill="#e4e7e9"/><path d="M416.02 402.5v.04a3.17 3.17 0 01-3.19 3.14H268.86a3.18 3.18 0 01-3.19-3.15v-.03c0-41.45 33.72-75.18 75.17-75.18 41.46 0 75.18 33.73 75.18 75.18zM280.96 437.44h119.77a3.82 3.82 0 013.17 5.93 75.17 75.17 0 01-63.06 34.31 75.15 75.15 0 01-63.05-34.31 3.82 3.82 0 013.17-5.93z" fill="#cccdce"/><path d="M333.5 78.5a15.5 15.5 0 010 31h-26a15.5 15.5 0 010-31h26z" fill="#e4e7e9"/><path d="M172.94 47.45c-.01-.35-.05-.7-.05-1.05a20 20 0 0120-20h111c.35 0 .7.03 1.05.05A19.93 19.93 0 00284.99 7.5H174a20 20 0 00-1.05 39.95z" fill="#d8cec5"/><path d="M247.94 100.45a19.93 19.93 0 00-7.05-14.22v14.17h6c.35 0 .7.03 1.05.05z" fill="#e4e7e9"/><path d="M146.89 120.4a20 20 0 0120-20h26a14 14 0 0014-14v-6a14 14 0 00-14-14c-1.7 0-3.33-.24-4.9-.63V81.5h-39.48c-11.03 0-20.38 8.71-20.52 19.74a19.94 19.94 0 0018.95 20.2c-.01-.34-.05-.69-.05-1.04zM315.43 101.94c2.8-2.8 6.68-4.54 10.96-4.54h22.21a15.48 15.48 0 00-15.1-18.9h-26A15.46 15.46 0 00292 94a15.5 15.5 0 0015.5 15.5h3.78a15.49 15.49 0 014.15-7.56z" fill="#d8cec5"/><path d="M346.08 293.48l1.83-19.33A15.7 15.7 0 00332.3 257h-7.88l5.44-57.61c.1-1.07.1-2.14-.02-3.2a21.54 21.54 0 0015.65-20.69c0-11.86-9.64-21.5-21.5-21.5H195.5v-25H228a27.53 27.53 0 0027.5-27.5 27.54 27.54 0 00-26-27.46V55H285c15.17 0 27.5-12.34 27.5-27.5S300.15 0 285 0H174c-15.16 0-27.5 12.34-27.5 27.5S158.83 55 174 55h6.5v19H148a27.53 27.53 0 00-27.5 27.5 27.54 27.54 0 0026 27.46V154H86a21.52 21.52 0 00-21.5 21.5c0 9.83 6.63 18.14 15.66 20.7a15.83 15.83 0 00-.02 3.19L85.57 257h-7.88a15.71 15.71 0 00-15.61 17.15L76.03 421.8c.76 8.1 7.47 14.2 15.6 14.2h10.85l5.82 61.6c.78 8.21 7.58 14.4 15.82 14.4h186.02c.8 0 1.56-.12 2.28-.35h28.42c60.19 0 109.15-48.97 109.15-109.15 0-58.43-46.15-106.28-103.91-109.02zM215.99 402.5c0-39.87 24.92-74.04 60-87.74-26.85 19.9-44.3 51.82-44.3 87.74s17.45 67.84 44.3 87.74c-35.08-13.7-60-47.87-60-87.74zM154 114h-6a12.5 12.5 0 010-25h40a7.5 7.5 0 007.5-7.5v-34A7.5 7.5 0 00188 40h-14a12.5 12.5 0 010-25h111a12.5 12.5 0 010 25h-63a7.5 7.5 0 00-7.5 7.5v34A7.5 7.5 0 00222 89h6a12.5 12.5 0 010 25h-40a7.5 7.5 0 00-7.5 7.5V154h-19v-32.5a7.5 7.5 0 00-7.5-7.5zm-68 55h238a6.5 6.5 0 010 13H86a6.5 6.5 0 010-13zm4.97 251.38L77.01 272.75c0-.07-.03-.3.17-.52.2-.22.43-.22.5-.22h84.88a7.5 7.5 0 100-15h-61.93l-5.57-59.03c-.03-.26.05-.49.23-.68s.4-.29.65-.29h218.1c.26 0 .48.1.66.3s.25.41.23.67L309.35 257h-82.36a7.5 7.5 0 100 15H332.3c.07 0 .3 0 .5.22s.18.45.17.52l-1.94 20.61h-20.89c-60.18 0-109.15 48.96-109.15 109.15 0 6.3.54 12.48 1.57 18.5H91.64a.68.68 0 01-.68-.62zm32.28 75.81l-5.7-60.19h88.71a109.7 109.7 0 0049.32 61H124.12a.89.89 0 01-.89-.8zm217.6.46c-51.9 0-94.14-42.24-94.14-94.15s42.23-94.15 94.15-94.15 94.14 42.24 94.14 94.15-42.23 94.15-94.14 94.15z"/><path d="M340.85 319.82c-45.6 0-82.68 37.1-82.68 82.68 0 1.23.04 2.4.08 3.49a7.5 7.5 0 007.5 7.19h150.19a7.5 7.5 0 007.5-7.2c.04-1.08.08-2.25.08-3.48 0-45.59-37.09-82.68-82.67-82.68zm-67.55 78.36c2.24-35.31 31.68-63.36 67.55-63.36s65.3 28.05 67.54 63.36H273.3zM407.38 429.94H274.3a7.5 7.5 0 00-6.63 11c14.39 27.29 42.42 44.24 73.17 44.24s58.77-16.95 73.16-44.24a7.5 7.5 0 00-6.63-11zm-66.53 40.24a67.5 67.5 0 01-52.68-25.24h105.35a67.5 67.5 0 01-52.67 25.24zM284.5 94c0 12.68 10.31 23 23 23h26c12.67 0 23-10.32 23-23s-10.33-23-23-23h-26c-12.7 0-23 10.32-23 23zm57 0a8 8 0 01-8 8h-26a8 8 0 010-16h26a8 8 0 018 8z"/></svg>