<svg viewBox="0 0 512 512" xmlns="http://www.w3.org/2000/svg"><path d="M400 233H234v229h179V247c0-7-6-14-13-14z" fill="#f7f4f7"/><path d="M460 233h-64c8 0 14 7 14 14v215h63V247c0-7-6-14-13-14zM214 36L73 25c-8-1-15 5-15 13v37l163 13V48c0-5-3-10-7-12z" fill="#edeaed"/><path d="M267 40l-58-5c4 3 7 7 7 13v40l64 5V54c0-8-6-13-13-14z" fill="#d1ccd3"/><path d="M235 72L54 58c-8-1-15 5-15 13v391h201V83c0-5-2-9-5-11z" fill="#c1bcc4"/><path d="M286 76l-56-4c3 2 6 6 6 11v379h63V90c0-7-5-13-13-14z" fill="#a39ba3"/><path fill="#c9e0fd" d="M106 155H76c-3 0-6-2-6-5v-23c0-3 3-6 6-6h30c3 0 6 3 6 6v23c0 3-3 5-6 5zM182 155h-30c-3 0-6-2-6-5v-23c0-3 3-6 6-6h30c3 0 5 3 5 6v23c0 3-2 5-5 5zM240 121h-13c-3 0-5 3-5 6v23c0 3 2 5 5 5h13zM106 223H76c-3 0-6-3-6-6v-23c0-3 3-5 6-5h30c3 0 6 2 6 5v23c0 3-3 6-6 6zM182 223h-30c-3 0-6-3-6-6v-23c0-3 3-5 6-5h30c3 0 5 2 5 5v23c0 3-2 6-5 6zM240 189h-13c-3 0-5 2-5 5v23c0 3 2 6 5 6h13zM106 290H76c-3 0-6-2-6-5v-23c0-3 3-6 6-6h30c3 0 6 3 6 6v23c0 3-3 5-6 5zM145 367H77c-3 0-7-3-7-7v-21c0-3 4-6 7-6h68c3 0 6 3 6 6v21c0 4-3 7-6 7zM182 290h-30c-3 0-6-2-6-5v-23c0-3 3-6 6-6h30c3 0 5 3 5 6v23c0 3-2 5-5 5zM240 256h-13c-3 0-5 3-5 6v23c0 3 2 5 5 5h13z"/><path d="M189 333c-3 0-5 2-5 4v125h56V333z" fill="#f7f4f7"/><path d="M258 333h-22v129h27V337c0-2-2-4-5-4z" fill="#edeaed"/><path d="M425 452H25a17 17 0 100 35h416l2-2v-15c0-10-8-18-18-18z" fill="#efc984"/><path d="M487 452h-64c10 0 18 8 18 18v17h46a17 17 0 100-35z" fill="#e8ae4d"/><path fill="#bcd6f9" d="M263 150v-23c0-3-2-6-5-6h-22v34h22c3 0 5-2 5-5zM263 217v-23c0-3-2-5-5-5h-22v34h22c3 0 5-3 5-6zM263 285v-23c0-3-2-6-5-6h-22v34h22c3 0 5-2 5-5z"/><path fill="#c9e0fd" d="M367 322h-31c-3 0-6-3-6-6v-25c0-3 3-6 6-6h31c3 0 6 3 6 6v25c0 3-3 6-6 6zM367 391h-31c-3 0-6-3-6-6v-24c0-4 3-7 6-7h31c3 0 6 3 6 7v24c0 3-3 6-6 6zM437 322h-31c-4 0-6-3-6-6v-25c0-3 2-6 6-6h31c3 0 6 3 6 6v25c0 3-3 6-6 6zM437 391h-31c-4 0-6-3-6-6v-24c0-4 2-7 6-7h31c3 0 6 3 6 7v24c0 3-3 6-6 6z"/><path d="M487 445h-6V321a7 7 0 10-15 0v124H307V241h153c3 0 6 3 6 6v39a7 7 0 1015 0v-39c0-12-10-21-21-21H307V90c0-11-9-20-20-21V54c0-11-8-21-19-22L73 17c-12-1-22 9-22 21v12c-11 1-20 11-20 21v374h-6a25 25 0 000 50h462a25 25 0 000-50zM66 38c0-3 3-6 6-6l195 15c3 1 5 3 5 7v13L66 51V38zM46 71c0-3 3-6 7-6l233 19c3 0 6 2 6 6v355h-21V337c0-6-6-12-13-12h-69c-7 0-13 6-13 12v49a8 8 0 0015 0v-46h65v105h-65v-24a8 8 0 00-15 0v24H46zm441 409H25a10 10 0 010-20h462a10 10 0 010 20z"/><path d="M76 163h30c7 0 13-6 13-13v-23c0-7-6-13-13-13H76c-7 0-13 6-13 13v23c0 7 6 13 13 13zm2-34h26v19H78zM152 163h30c7 0 13-6 13-13v-23c0-7-6-13-13-13h-30c-8 0-13 6-13 13v23c0 7 5 13 13 13zm2-34h26v19h-26zM227 163h31c7 0 13-6 13-13v-23c0-7-6-13-13-13h-31c-7 0-13 6-13 13v23c0 7 6 13 13 13zm2-34h27v19h-27zM76 230h30c7 0 13-5 13-13v-23c0-7-6-13-13-13H76c-7 0-13 6-13 13v23c0 8 6 13 13 13zm2-34h26v19H78zM152 230h30c7 0 13-5 13-13v-23c0-7-6-13-13-13h-30c-8 0-13 6-13 13v23c0 8 5 13 13 13zm2-34h26v19h-26zM227 230h31c7 0 13-5 13-13v-23c0-7-6-13-13-13h-31c-7 0-13 6-13 13v23c0 8 6 13 13 13zm2-34h27v19h-27zM76 298h30c7 0 13-6 13-13v-23c0-8-6-13-13-13H76c-7 0-13 5-13 13v23c0 7 6 13 13 13zm2-34h26v19H78zM145 325H77c-8 0-14 7-14 14v21c0 8 6 14 14 14h68c7 0 14-6 14-14v-21c0-7-7-14-14-14zm-1 34H78v-19h66zM152 298h30c7 0 13-6 13-13v-23c0-8-6-13-13-13h-30c-8 0-13 5-13 13v23c0 7 5 13 13 13zm2-34h26v19h-26zM227 298h31c7 0 13-6 13-13v-23c0-8-6-13-13-13h-31c-7 0-13 5-13 13v23c0 7 6 13 13 13zm2-34h27v19h-27zM381 291c0-7-7-13-14-13h-31c-7 0-14 6-14 13v25c0 7 7 13 14 13h31c7 0 14-6 14-13zm-15 23h-29v-21h29zM367 347h-31c-7 0-14 6-14 14v24c0 7 7 14 14 14h31c7 0 14-7 14-14v-24c0-8-7-14-14-14zm-1 37h-29v-22h29zM450 291c0-7-6-13-13-13h-31c-8 0-14 6-14 13v25c0 7 6 13 14 13h31c7 0 13-6 13-13zm-15 23h-28v-21h28zM437 347h-31c-8 0-14 6-14 14v24c0 7 6 14 14 14h31c7 0 13-7 13-14v-24c0-8-6-14-13-14zm-2 37h-28v-22h28z"/></svg>