<svg xmlns="http://www.w3.org/2000/svg" viewBox="0 0 512.5 512.5"><path d="M127 121c-14-9-32-3-42 9V96c14-15 12-45-7-54-20 10-22 38-8 53v35c-10-12-29-18-42-9-4 22 22 39 42 34v35h15v-35c20 5 45-12 42-34z" fill="#b3e59f"/><path fill="#ffe09f" d="M0 304h166v80H0zM0 384h166v78H0z"/><path fill="#f6d190" d="M126 304h40v80h-40zM126 384h40v78h-40z"/><path d="M172 20c0-7 5-12 12-12h280c7 0 12 5 12 12v182c0 7-5 13-12 13H184c-7 0-12-6-12-13V20z" fill="#857e87"/><path d="M464 8h-40c7 0 12 5 12 12v182c0 7-5 13-12 13h40c7 0 12-6 12-13V20c0-7-5-12-12-12z" fill="#5d5360"/><path fill="#dfdde0" d="M292 213h64v44h-64z"/><path fill="#c8c5c9" d="M336 213h20v44h-20z"/><path d="M172 202c0 7 5 13 12 13h280c7 0 12-6 12-13v-29H172v29z" fill="#f0eef0"/><path d="M436 173v29c0 7-5 13-12 13h40c7 0 12-6 12-13v-29h-40z" fill="#dfdde0"/><path d="M120 184c3 0 5 3 5 5 0 36-9 67-49 67-42 0-49-31-50-67 0-2 3-5 5-5h89z" fill="#ff8086"/><path d="M120 184H90c3 0 5 3 5 5 0 31-7 58-34 65l15 2c40 0 49-31 49-67 0-2-2-5-5-5z" fill="#e5646e"/><path d="M505 249H8c-4 0-8 4-8 8v57h512v-57c0-4-3-8-7-8z" fill="#e2a975"/><path d="M112 353H55c-10 0-10-15 0-15h57c9 0 9 15 0 15zM112 431H55c-10 0-10-15 0-15h57c9 0 9 15 0 15z" fill="#c38c66"/><path d="M438 85v216s-49-21-49-109 49-107 49-107zM439 342c-1 34-6 56-45 56H232s-6-56 72-56h134" fill="#b3e59f"/><path d="M505 419c-4 0-8 3-8 7v79c0 9 15 9 15 0v-79c0-4-3-7-7-7zM505 249h-59v-27h18c11 0 20-9 20-20V20c0-11-9-20-20-20H184c-11 0-20 9-20 20v27c0 9 15 9 15 0V20c0-3 2-5 5-5h280c3 0 5 2 5 5v145h-23V85a7 7 0 00-10-7c-2 1-44 18-53 87H179V86c0-10-15-10-15 0v116c0 11 9 20 20 20h101v27H115c16-16 18-43 18-65 0-4-4-7-8-7H85v-14c24 5 50-15 50-40 0-3-1-7-4-9-14-9-34-5-46 5v-13c21-15 23-50 2-66l-7-5c-10-4-22 15-24 22-6 17-1 37 14 48v14c-10-8-22-12-35-9-5 1-14 3-15 9-5 27 25 49 50 44v14H26c-4 0-7 3-7 7 0 22 1 49 18 65H8c-4 0-8 4-8 8v248c0 9 15 9 15 0v-35h136v35c0 9 15 9 15 0V314h265v20H304c-29 0-51 8-65 23a57 57 0 00-14 42c0 4 4 6 7 6h97v14h-29c-10 0-10 15 0 15h29v63h-96c-9 0-9 15 0 15h101a7 7 0 005 0h101c10 0 10-15 0-15h-96v-92h50c18 0 30-4 38-12 15-15 15-40 14-72v-8h51v71c0 10 15 10 15 0V257c0-4-3-8-7-8zM97 128c10-6 18-4 23-3-2 16-21 27-35 22 1-4 3-13 12-19zm-50 16c-6-4-11-11-12-19 15-5 33 7 35 22-8 3-16 1-23-3zm31-93c12 10 12 32 0 41-4-3-10-9-10-20 0-12 6-18 10-21zM34 192h84c-2 40-14 56-42 56-29 0-41-15-42-56zm388 190c-6 6-15 8-28 8H240c1-6 3-15 10-23 11-12 29-18 54-18h127c-1 15-3 27-9 33zm47-202v22c0 3-2 5-5 5h-18v-27h23zm-50-69l12-12v188c-4-3-8-7-12-13-14-19-22-48-22-82 0-33 8-61 22-81zm-35 111c1 10 3 19 6 27h-27v-27h21zm-205-20v-22h203v27H184c-3 0-5-2-5-5zm121 20h48v27h-48v-27zm96 42c8 17 17 28 25 35H15v-35h381zM15 455v-63h136v63H15zm136-78H15v-63h136v63zm295-78v-35h51v35h-51z"/><path d="M55 353h57c9 0 9-15 0-15H55c-10 0-10 15 0 15zM112 416H55c-10 0-10 15 0 15h57c9 0 9-15 0-15z"/></svg>