<svg xmlns="http://www.w3.org/2000/svg" viewBox="0 0 512 512">
  <path fill="#736067" d="M350 45c-6-4-14-7-24-7-3-1-7-3-8-6-8-15-38-55-121-15-82 39-56 97-40 121l2 5h93l36-26 34 22 29 4 4-4 13-50c4-17-3-35-18-44z"/>
  <path fill="#69525a" d="M249 17c13-6 25-10 36-13-19-7-47-6-88 13-82 39-56 97-40 121l2 5h52l-2-5c-16-24-42-82 40-121z"/>
  <path fill="#ffcebe" d="M357 140c-7-6-16-10-28-8l-3 3v49l3 2c19 3 35-11 35-28 0-7-3-13-7-18z"/>
  <path fill="#f2c1b1" d="M347 134c-6-2-11-3-18-2l-3 3v49l3 2c6 1 12 0 18-2v-50z"/>
  <path fill="#ffcebe" d="M183 132c-11-2-21 2-28 8-4 5-7 11-7 18 0 17 16 31 35 28l3-2v-50l-3-2z"/>
  <path fill="#f2c1b1" d="M169 158c0-7 2-13 7-18l10-6-3-2c-11-2-21 2-28 8-4 5-7 11-7 18 0 17 16 31 35 28l3-2c-10-4-17-14-17-26z"/>
  <path fill="#e1eef2" d="M314 303l-1 1-45 45c-7 7-19 7-27 0l-42-42-2-2-2 2 24 200 5 5h64l5-5 25-200z"/>
  <path fill="#bfdade" d="M254 354c-5 0-9-2-13-5l-42-42-2-2-2 2 24 200 5 5h51z"/>
  <path fill="#ffdecf" d="M329 132a44 44 0 01-37-33l-1-1-1 1a42 42 0 01-38 32l-15 1h-17v92h92l1-29 12-9 4-6v-48z"/>
  <path fill="#ffcebe" d="M223 214v-82h-40v48l3 6 12 9 5 29h21l-1-10z"/>
  <path fill="#8da1ba" d="M406 316l-62-24-6 4-25 204 6 12h114c7 0 13-6 13-13V378c0-28-18-53-40-62zM201 503l-25-200-8-11-62 24c-17 7-40 29-40 62v121c0 7 6 13 13 13h114z"/>
  <path fill="#7f95b0" d="M96 499V365c0-27 16-47 31-57l-21 8c-17 7-40 29-40 62v121c0 7 6 13 13 13h31c-8 0-14-6-14-13z"/>
  <path fill="#ffcebe" d="M316 281l-14-5c-3-1-5-4-5-7v-8l-4-4h-75l-3 4v8c0 3-2 5-3 6l-16 6-2 3 2 22 3 3 42 42c8 7 20 7 27 0l45-45 3-2 2-20z"/>
  <path fill="#f5b2a2" d="M255 257h-37l-3 4v8c0 3-2 5-3 6l-16 6-2 3 2 22 3 3 42 42c4 4 9 5 14 6V257z"/>
  <path fill="#798799" d="M136 512V371a8 8 0 10-16 0v141zM392 512V371a8 8 0 10-16 0v141z"/>
  <path fill="#ffdecf" d="M308 200v7c0 8-7 15-14 15h-6c-4 0-9-2-12-5s-7-5-12-5h-16c-5 0-9 2-12 5s-8 5-12 5h-6c-7 0-14-7-14-15v-7c0-5-3-10-7-12l-14-8v28c0 33 27 60 60 60h26c33 0 60-27 60-60v-28l-14 8c-4 2-7 7-7 12z"/>
  <path fill="#ffcebe" d="M223 222h-5c-7 0-14-7-14-15v-7c0-5-3-10-7-12l-14-8v28c0 33 27 60 60 60h21c-21-6-38-24-41-46z"/>
  <path fill="#5f7085" d="M161 383c-1-2 0-4 1-5l10-12c2-3 2-6-1-8l-13-11c-2-2-2-4-2-6l12-49 28-11 28 231h-31zM351 383c1-2 0-4-1-5l-10-12c-2-3-2-6 1-8l13-11c2-2 2-4 2-6l-12-49-28-11-28 231h31z"/>
</svg>