<svg viewBox="0 0 512 512" xmlns="http://www.w3.org/2000/svg"><path d="M503.5 334.2L471.7 154c-6-33.5-35.2-57-68.2-56.7h-76l-73.3 10-69.7-10h-78A68.7 68.7 0 0040.3 154L8.6 334.2A68.7 68.7 0 10143.8 358l4.6-26.2a20 20 0 0119.7-16.5h175.8c9.7 0 18 7 19.7 16.5l4.6 26.2a68.7 68.7 0 00135.3-23.8z" fill="#3c6a73"/><path d="M208.4 315.3H168c-9.7 0-18 7-19.7 16.5l-4.6 26.2c-.8 4.2-1.9 8.2-3.3 12a53 53 0 1167.9-54.7z" fill="#5a5a5a"/><path d="M106.5 97.3h15A68.7 68.7 0 0055.3 154L23.5 334.2a68.7 68.7 0 0060.3 80.1 69 69 0 01-19.6-.6 68.7 68.7 0 01-55.7-79.5L40.3 154c5.8-32.8 34-56 66.2-56.7zM493.3 383.6a68.5 68.5 0 01-121.9-13.8 72 72 0 01-3.2-11.8l-4.6-26.2a20 20 0 00-19.7-16.5H208.4a52.6 52.6 0 00-7.5-23.4 8 8 0 006.5 3.4h96.2a8 8 0 006.8-3.8 53 53 0 1184.5 63.2 2 2 0 00-.4 2.3 68.7 68.7 0 0098.8 26.6z" fill="#2f535a"/><circle cx="355.5" cy="319.3" fill="#b4d2d7" r="40"/><path d="M392 335.7a40 40 0 11-53-52.9 40 40 0 0053 53z" fill="#9bb9c3"/><path d="M153 185.8h-18a3 3 0 01-3-3v-19c0-9.9-8-18.2-17.8-18-9.5.1-17.2 8-17.2 17.5v19.5a3 3 0 01-3 3H76c-9.8 0-18.2 8-18 17.8.2 9.5 8 17.2 17.5 17.2H94a3 3 0 013 3v19c0 9.8 8 18.1 17.8 18 9.6-.2 17.2-8 17.2-17.5v-19.5a3 3 0 013-3h18.5c9.6 0 17.3-7.7 17.5-17.2.2-9.8-8.1-17.8-18-17.8z" fill="#b4d2d7"/><path d="M116.2 145.9c-3.8 3.2-6.2 8-6.2 13.4v23.5a3 3 0 01-3 3H94a3 3 0 003-3v-19.5a17.5 17.5 0 0119.2-17.4zM110 217.8v42.4c-7.5-2-13-8.8-13-17v-19.4a3 3 0 00-3-3H75.5c-8.1 0-15-5.6-16.9-13H100a10 10 0 0110 10z" fill="#9bb9c3"/><path d="M399 267.5a18.8 18.8 0 110-37.5 18.8 18.8 0 010 37.5z" fill="#b3e59f"/><path d="M417 254.3a22.5 22.5 0 01-21.9-27.7A22.5 22.5 0 10421 254c-1.3.2-2.6.4-3.9.4z" fill="#95d6a4"/><path d="M399 177.5a19.8 19.8 0 110-39.5 19.8 19.8 0 010 39.5z" fill="#ffd064"/><path d="M359 220.5a17.8 17.8 0 110-35.5 17.8 17.8 0 010 35.5z" fill="#6cbff8"/><path d="M439 220.5a17.8 17.8 0 110-35.5 17.8 17.8 0 010 35.5z" fill="#938dc8"/><path d="M421 163a22.5 22.5 0 01-22 17.3h-.2a22.5 22.5 0 01-3.7-44.7A22.5 22.5 0 00421 163z" fill="#ffc250"/><path d="M377 208.3a22.5 22.5 0 01-21.9-27.7A22.5 22.5 0 10381 208c-1.3.2-2.6.4-3.9.4z" fill="#5fa7ee"/><path d="M461 208a22.5 22.5 0 01-22 17.3h-.5a22.5 22.5 0 01-3.4-44.7A22.5 22.5 0 00461 208z" fill="#7f78bd"/><path d="M184.5 97.3h143v71a10 10 0 01-10 10h-123a10 10 0 01-10-10z" fill="#b4d2d7"/><path d="M214.5 178.3h-20a10 10 0 01-10-10v-71h20v71a10 10 0 0010 10z" fill="#9bb9c3"/><path d="M301.5 269.8h-90a7.5 7.5 0 110-15h90a7.5 7.5 0 110 15zM208.4 315.3H168c-9.7 0-18 7-19.7 16.5l-4.6 26.2c-.8 4.2-1.9 8.2-3.3 12a53 53 0 1167.9-54.7z" fill="#2f535a"/><circle cx="155.5" cy="319.3" fill="#b4d2d7" r="40"/><path d="M192 335.7a40 40 0 11-53-52.9 40 40 0 0053 53z" fill="#9bb9c3"/><g><path d="M156 104.8h21v63.5c0 9.6 7.9 17.5 17.5 17.5h123c9.7 0 17.5-7.9 17.5-17.5v-63.5H403a61 61 0 0161.4 50.5l22.1 125.3a7.5 7.5 0 0014.8-2.6L479 152.7a75.9 75.9 0 00-75-63h-248a7.5 7.5 0 100 15zm164 0v63.5c0 1.3-1.1 2.5-2.5 2.5h-123a2.5 2.5 0 01-2.5-2.5v-63.5z"/><path d="M510.9 332.9l-3.5-19.8a7.5 7.5 0 00-14.8 2.7l3.5 19.7a61.2 61.2 0 01-119.4 26.2 47.5 47.5 0 10-67.3-54H201.6a47.6 47.6 0 00-59.5-34 7.5 7.5 0 004.2 14.4 32.6 32.6 0 0141.7 31.2 32.5 32.5 0 11-62.8-11.9 7.5 7.5 0 00-14-5.5 47.3 47.3 0 0024 60.3 60.8 60.8 0 01-69.6 44.1 61.2 61.2 0 01-49.7-70.8l31.8-180.2c5-28.9 30.2-50.2 59.5-50.5H121a7.5 7.5 0 100-15h-14.5a76.4 76.4 0 00-73.6 63l-31.7 180a76.2 76.2 0 00148.4 33.6 47.6 47.6 0 0053.3-43.6H308a47.6 47.6 0 0054.3 43.5 75.6 75.6 0 0073.3 56 76.2 76.2 0 0075.2-89.4zM323 319.3a32.5 32.5 0 1165 0 32.5 32.5 0 01-65 0z"/><path d="M89.5 163.3v15h-14a25 25 0 000 50h14v15a25 25 0 0050 0v-15h14a25 25 0 000-50h-14v-15a25 25 0 00-50 0zm35 0v22.5c0 4.1 3.4 7.5 7.5 7.5h21.5a10 10 0 010 20H132a7.5 7.5 0 00-7.5 7.5v22.5a10 10 0 01-20 0v-22.5c0-4.2-3.3-7.5-7.5-7.5H75.5a10 10 0 010-20H97c4.2 0 7.5-3.4 7.5-7.5v-22.5a10 10 0 0120 0zM399 271.3a22.5 22.5 0 100-45 22.5 22.5 0 000 45zm0-30a7.5 7.5 0 110 15 7.5 7.5 0 010-15zM399 180.3a22.5 22.5 0 100-45 22.5 22.5 0 000 45zm0-30a7.5 7.5 0 110 15 7.5 7.5 0 010-15zM359 180.3a22.5 22.5 0 100 45 22.5 22.5 0 000-45zm0 30a7.5 7.5 0 110-15 7.5 7.5 0 010 15zM439 225.3a22.5 22.5 0 100-45 22.5 22.5 0 000 45zm0-30a7.5 7.5 0 110 15 7.5 7.5 0 010-15zM211.5 239.8H239a7.5 7.5 0 100-15h-27.5a7.5 7.5 0 100 15zM301.5 224.8H274a7.5 7.5 0 100 15h27.5a7.5 7.5 0 100-15zM211.5 269.8h90a7.5 7.5 0 100-15h-90a7.5 7.5 0 100 15z"/></g></svg>