<svg xmlns="http://www.w3.org/2000/svg" viewBox="0 0 24 24"><path fill="#212121" d="M12 .5C5.37.5 0 5.78 0 12.3c0 5.2 3.44 9.62 8.2 11.18.6.11.83-.25.83-.57l-.02-2c-3.34.7-4.04-1.58-4.04-1.58-.55-1.36-1.34-1.73-1.34-1.73-1.08-.73.09-.72.09-.72 1.2.09 1.83 1.22 1.83 1.22 1.07 1.8 2.81 1.28 3.5.98.1-.76.42-1.28.76-1.58-2.67-.3-5.47-1.3-5.47-5.82A4.5 4.5 0 015.58 8.5c-.14-.3-.54-1.5.1-3.12 0 0 1-.31 3.3 1.21a11.72 11.72 0 016 0c2.28-1.52 3.29-1.2 3.29-1.2.64 1.62.24 2.81.12 3.11a4.52 4.52 0 011.23 3.17c0 4.53-2.8 5.52-5.48 5.81.42.36.81 1.08.81 2.19l-.01 3.22c0 .31.2.68.82.56A11.78 11.78 0 0024 12.3 11.9 11.9 0 0012 .5z"/></svg>