<svg xmlns="http://www.w3.org/2000/svg" viewBox="0 0 512 512"><path d="M256 512c141 0 256-115 256-256S397 0 256 0 0 115 0 256s115 256 256 256zm76-43.1a238.8 238.8 0 0034-63h58.9c-25 28.2-56.9 50-93 63zM447.3 376h-71.8c8.9-32.2 14-67.9 15.2-105h90.7a224.5 224.5 0 01-34 105zm0-240a224.5 224.5 0 0134 105h-90.6a449.3 449.3 0 00-15.2-105zM425 106h-59a239 239 0 00-34-62.9c36.1 13 68 34.8 93 62.9zM271 32.6c29.4 10 50.6 45 62.6 73.4H271zm0 103.4h73.4a411.2 411.2 0 0116.4 105H271zm0 135h89.8a411.2 411.2 0 01-16.4 105H271zm0 135h62.6c-12 28.5-33.2 63.5-62.6 73.4zm-183.9 0h59a239 239 0 0034 62.9c-36.1-13-68-34.8-93-62.9zM241 479.4c-29.4-10-50.5-44.9-62.6-73.4H241zm0-103.4h-73.4a411.2 411.2 0 01-16.4-105H241zm0-135h-89.8c1.2-37.6 6.8-73.4 16.4-105H241zm0-208.4V106h-62.6c12-28.5 33.2-63.5 62.6-73.4zM180 43a239 239 0 00-34 62.9H87.2c25-28.1 56.9-50 93-62.9zM64.7 136h71.8c-8.9 32.2-14 67.9-15.2 105H30.5a224.6 224.6 0 0134-105zm-34 135h90.6c1.1 37.1 6.3 72.8 15.2 105H64.6a224.5 224.5 0 01-34-105z"/></svg>