<svg xmlns="http://www.w3.org/2000/svg" viewBox="0 0 408 466.9"><linearGradient id="a" x2="261.7" y1="112.1" y2="112.1" gradientUnits="userSpaceOnUse"><stop offset="0" stop-color="#63be6b"/><stop offset=".5" stop-color="#5bbc6a"/><stop offset="1" stop-color="#4ab96a"/></linearGradient><path fill="url(#a)" d="M261.7 142.3L15 1.3a10 10 0 00-10 .1c-3.1 1.8-5 5-5 8.6l.2 34.4 179.7 179.7 81.8-81.8z"/><linearGradient id="b" x1=".2" x2="179.9" y1="223.4" y2="223.4" gradientUnits="userSpaceOnUse"><stop offset="0" stop-color="#3ec6f2"/><stop offset="1" stop-color="#45afe3"/></linearGradient><path fill="url(#b)" d="M.2 44.4l1.6 357.9L180 224.1.2 44.4z"/><linearGradient id="c" x1="179.9" x2="408" y1="229.5" y2="229.5" gradientUnits="userSpaceOnUse"><stop offset="0" stop-color="#faa51a"/><stop offset=".4" stop-color="#fab716"/><stop offset=".7" stop-color="#fac412"/><stop offset="1" stop-color="#fac80f"/></linearGradient><path fill="url(#c)" d="M402.9 223l-141.2-80.7-81.9 81.8 92.4 92.4L403 240.3a10 10 0 005-8.6c0-3.6-2-6.9-5.1-8.7z"/><linearGradient id="d" x1="1.7" x2="272.3" y1="345.5" y2="345.5" gradientUnits="userSpaceOnUse"><stop offset="0" stop-color="#ec3b50"/><stop offset="1" stop-color="#e7515b"/></linearGradient><path fill="url(#d)" d="M1.7 402.3l.3 54.6c0 3.6 1.9 6.9 5 8.6a10 10 0 0010 0l255.3-148.9-92.4-92.4L1.7 402.3z"/></svg>