<svg xmlns="http://www.w3.org/2000/svg" viewBox="0 0 245 221"><path fill="#fa5c5c" d="M32 1C21 8 0 32 0 38v11c0 13 12 25 24 25 13 0 25-11 25-25 0 14 11 25 24 25 14 0 24-11 24-25 0 14 12 25 26 25 13 0 25-11 25-25 0 14 11 25 24 25 14 0 25-11 25-25 0 14 11 25 25 25 11 0 23-12 23-25V38c0-6-21-30-32-37A2306 2306 0 0032 1zm65 67a28 28 0 01-5 6c-5 5-12 8-20 8a28 28 0 01-19-8l-5-6-5 6a29 29 0 01-20 8l-3-1-1 30v12c0 24-3 78 10 91 20 5 57 7 94 7s73-2 93-7c13-13 11-67 11-91v-12l-2-30-3 1a29 29 0 01-20-8l-5-6-4 6a28 28 0 01-20 8c-8 0-15-3-20-8a28 28 0 01-5-6 28 28 0 01-5 6 28 28 0 01-19 8h-2a28 28 0 01-20-8 28 28 0 01-5-6zM77 94c8 0 15 0 24 10l22-1 21 1c9-10 17-10 25-10 4 0 19 0 30 30l11 41c9 31-3 32-17 32-20-1-32-16-32-31a244 244 0 01-77 0c0 15-11 30-32 31-14 0-25-1-17-32l12-41c11-30 26-30 30-30zm46 24s-22 20-26 27l14-1v13h23v-13l14 1c-3-7-25-27-25-27z" color="#000"/></svg>