<svg xmlns="http://www.w3.org/2000/svg" viewBox="0 0 512 512"><path d="M504.4 91.25v311.69a32.5 32.5 0 01-32.5 32.5H40.1a32.5 32.5 0 01-32.5-32.5V91.25a32.5 32.5 0 0132.5-32.5h431.8a32.5 32.5 0 0132.5 32.5z" fill="#d8d8d8"/><path d="M504.4 91.25v311.69a32.5 32.5 0 01-32.5 32.5H256V58.75h215.9a32.5 32.5 0 0132.5 32.5z" fill="#239999"/><path d="M504.4 91.25v51.02H7.61V91.25a32.48 32.48 0 0132.49-32.5h431.8a32.5 32.5 0 0132.5 32.5z" fill="#fcc63d"/><circle cx="59.37" cy="99.69" r="16.74" fill="#f9572b"/><g fill="#fcc63d"><circle cx="115.72" cy="99.69" r="16.74"/><circle cx="385.37" cy="261.88" r="16.74"/><circle cx="385.37" cy="322.46" r="16.74"/><circle cx="312.37" cy="261.88" r="16.74"/><circle cx="312.37" cy="207.14" r="16.74"/><circle cx="417.29" cy="383.03" r="16.74"/><circle cx="461.41" cy="254.79" r="16.74"/></g><g fill="#45b8c4"><circle cx="172.07" cy="99.69" r="16.74"/><path d="M504.4 91.25v51.02H256V58.76h215.9a32.5 32.5 0 0132.5 32.5z"/></g><circle cx="460.82" cy="315.82" r="16.74" fill="#fcc63d"/><path d="M59.38 75.36A24.37 24.37 0 0035.04 99.7c0 13.42 10.92 24.34 24.34 24.34s24.34-10.92 24.34-24.34a24.37 24.37 0 00-24.34-24.34zm0 33.47a9.14 9.14 0 010-18.27 9.14 9.14 0 010 18.27zM115.72 124.04c13.42 0 24.34-10.92 24.34-24.34s-10.92-24.34-24.34-24.34A24.37 24.37 0 0091.38 99.7a24.37 24.37 0 0024.34 24.34zm0-33.48a9.14 9.14 0 010 18.27 9.14 9.14 0 010-18.27zM172.07 124.04c13.42 0 24.34-10.92 24.34-24.34s-10.92-24.34-24.34-24.34a24.37 24.37 0 00-24.34 24.34 24.37 24.37 0 0024.34 24.34zm0-33.48a9.14 9.14 0 010 18.27 9.14 9.14 0 010-18.27z"/><path d="M256 3.07a7.6 7.6 0 00-7.6 7.6v40.48H40.1A40.14 40.14 0 000 91.25v311.69a40.14 40.14 0 0040.1 40.1h208.3v58.29a7.6 7.6 0 0015.21 0V10.67c0-4.2-3.4-7.6-7.6-7.6zM40.1 427.83a24.92 24.92 0 01-24.88-24.89V149.88h54.23a7.6 7.6 0 100-15.2H15.22V91.24A24.92 24.92 0 0140.1 66.36h208.3v68.31H96.74a7.6 7.6 0 100 15.21H248.4v277.95H40.1zM512 107.56v-16.3a40.14 40.14 0 00-40.1-40.1H281.35a7.6 7.6 0 100 15.2H395v43.44H281.35a7.6 7.6 0 100 15.2H402.6c4.2 0 7.6-3.4 7.6-7.6V66.36h18.25v40.9c0 4.2 3.4 7.6 7.6 7.6h60.74v19.81H281.35a7.6 7.6 0 100 15.21h70.22v6.45l-28.23 28.23a24.24 24.24 0 00-10.98-2.61c-6.5 0-12.61 2.53-17.2 7.13a24.37 24.37 0 000 34.42 24.27 24.27 0 0017.2 7.12c6.24 0 12.47-2.37 17.22-7.12a24.37 24.37 0 004.5-28.17l30.48-30.48a7.6 7.6 0 002.22-5.37v-9.6h10.98v88.89a24.38 24.38 0 00-16.74 23.12 24.37 24.37 0 0024.34 24.34 24.37 24.37 0 0024.34-24.34 24.38 24.38 0 00-16.73-23.12v-88.89h13.43v57.76c0 2.01.8 3.95 2.23 5.37l30.47 30.48a24.37 24.37 0 004.5 28.17 24.27 24.27 0 0017.22 7.12c6.23 0 12.47-2.37 17.21-7.12a24.37 24.37 0 000-34.42 24.18 24.18 0 00-17.21-7.13c-3.88 0-7.61.9-10.98 2.6l-28.23-28.22v-54.6h75.18v14.66h-53.63a7.6 7.6 0 100 15.2h53.63v14.67h-33.36a7.6 7.6 0 100 15.21h33.36v193.31a24.92 24.92 0 01-24.9 24.9h-3.47v-88.9a24.38 24.38 0 0016.74-23.12 24.37 24.37 0 00-24.34-24.34 24.37 24.37 0 00-24.34 24.34 24.38 24.38 0 0016.73 23.12v88.9H281.35a7.6 7.6 0 100 15.2H471.9a40.14 40.14 0 0040.1-40.1V107.56zM318.82 212.75a9.14 9.14 0 11-12.91-12.94 9.14 9.14 0 0112.91 12.94zm66.54 58.27a9.14 9.14 0 010-18.26 9.14 9.14 0 010 18.26zm81.92-23.03a9.14 9.14 0 01-12.92 12.92 9.14 9.14 0 0112.92-12.92zm-6.46 58.7a9.14 9.14 0 010 18.26 9.14 9.14 0 010-18.26zM443.66 99.66v-33.3h28.24a24.92 24.92 0 0124.9 24.9v8.4h-53.14z"/><path d="M281.35 390.64h112.83a24.38 24.38 0 0023.11 16.74 24.37 24.37 0 0024.34-24.34 24.37 24.37 0 00-24.34-24.34 24.38 24.38 0 00-23.11 16.73H373.7v-14.7a7.6 7.6 0 00-15.21 0v14.7h-14.2v-14.7a7.6 7.6 0 00-15.2 0v14.7h-13.18v-14.7a7.6 7.6 0 00-15.21 0v14.7h-19.36a7.6 7.6 0 000 15.21zM417.3 373.9a9.14 9.14 0 010 18.27 9.14 9.14 0 010-18.27zM281.35 314.86a7.6 7.6 0 100 15.2h80.9a24.38 24.38 0 0023.11 16.74c13.43 0 24.35-10.92 24.35-24.34s-10.92-24.34-24.35-24.34a24.38 24.38 0 00-23.11 16.74h-42.28V285a24.38 24.38 0 0016.74-23.11 24.37 24.37 0 00-24.35-24.34 24.37 24.37 0 00-24.34 24.34A24.38 24.38 0 00304.76 285v29.86h-23.4zm31.01-62.1a9.14 9.14 0 010 18.26 9.14 9.14 0 010-18.27zm73 60.57a9.14 9.14 0 010 18.26 9.14 9.14 0 010-18.26zM281.35 94.59h91.85a7.6 7.6 0 100-15.2h-91.85a7.6 7.6 0 100 15.2z"/></svg>