<svg xmlns="http://www.w3.org/2000/svg" viewBox="0 0 512 512"><path d="M160 240v32c0 9-7 16-16 16h-32c-9 0-16-7-16-16v-32c0-9 7-16 16-16h32c9 0 16 7 16 16zm-16 112h-32c-9 0-16 7-16 16v32c0 9 7 16 16 16h32c9 0 16-7 16-16v-32c0-9-7-16-16-16zm128-128h-32c-9 0-16 7-16 16v32c0 9 7 16 16 16h32c9 0 16-7 16-16v-32c0-9-7-16-16-16zm0 128h-32c-9 0-16 7-16 16v32c0 9 7 16 16 16h32c9 0 16-7 16-16v-32c0-9-7-16-16-16zm128-128h-32c-9 0-16 7-16 16v32c0 9 7 16 16 16h32c9 0 16-7 16-16v-32c0-9-7-16-16-16zm0 128h-32c-9 0-16 7-16 16v32c0 9 7 16 16 16h32c9 0 16-7 16-16v-32c0-9-7-16-16-16zM112 96h32c9 0 16-7 16-16V16c0-9-7-16-16-16h-32c-9 0-16 7-16 16v64c0 9 7 16 16 16zm400 32v320c0 35-29 64-64 64H64c-35 0-64-29-64-64V128c0-35 29-64 64-64h16v16c0 18 14 32 32 32h32c18 0 32-14 32-32V64h160v16c0 18 14 32 32 32h32c18 0 32-14 32-32V64h16c35 0 64 29 64 64zm-32 64c0-18-14-32-32-32H64c-18 0-32 14-32 32v256c0 18 14 32 32 32h384c18 0 32-14 32-32V192zM368 96h32c9 0 16-7 16-16V16c0-9-7-16-16-16h-32c-9 0-16 7-16 16v64c0 9 7 16 16 16z"/></svg>