<svg viewBox="0 0 512 512" xmlns="http://www.w3.org/2000/svg"><path d="M470.3 432.3H41.7v-256c0-11.5 9.2-20.7 20.7-20.7h387.2c11.5 0 20.7 9.2 20.7 20.7z" fill="#f4fbff"/><path d="M81.7 419.7V209.3c0-7.6 6.1-13.7 13.7-13.7h321.2c7.6 0 13.7 6.1 13.7 13.7v210.4z" fill="#cbe2ff"/><path d="M459.9 476.7H52.1c-24.6 0-44.6-20-44.6-44.6 0-6.9 5.6-12.4 12.4-12.4h472.2c6.8 0 12.4 5.5 12.4 12.4 0 24.6-20 44.6-44.6 44.6z" fill="#d8e2f1"/><path fill="#b9cbea" d="M492 419.7h-50.8v21.6a35.3 35.3 0 01-35.4 35.4H460c24.6 0 44.6-20 44.6-44.6 0-6.9-5.6-12.4-12.4-12.4zM180.3 419.7a28.5 28.5 0 0028.5 28.5h94.4a28.5 28.5 0 0028.5-28.5z"/><path d="M115.7 419.7v-371c0-7.4 5.9-13.4 13.2-13.4h254.2c7.3 0 13.2 6 13.2 13.3v371z" fill="#f4fbff"/><path d="M383 35.3h-62.9c7.4 0 13.3 6 13.3 13.3v371h63v-371c0-7.3-6-13.3-13.3-13.3z" fill="#e4f6ff"/><path d="M383 35.3H129c-7.4 0-13.3 6-13.3 13.3V85h280.6V48.6c0-7.3-5.9-13.3-13.2-13.3z" fill="#ffe07d"/><path d="M383 35.3h-62.9c7.4 0 13.3 6 13.3 13.3V85h63V48.6c0-7.3-6-13.3-13.3-13.3z" fill="#ffd064"/><circle cx="319.1" cy="60.1" r="7.4"/><circle cx="348.7" cy="60.1" r="7.4"/><path d="M250.2 256.3h-80c-8.7 0-15.7-7-15.7-15.6v-99.3c0-8.6 7-15.6 15.7-15.6h80c8.7 0 15.7 7 15.7 15.6v99.3c0 8.6-7 15.6-15.7 15.6z" fill="#bed8fb"/><path d="M210.2 206.2c-25.4 0-47 16.2-55 38.8a15.7 15.7 0 0015 11.3h80c7.2 0 13.2-4.8 15-11.3a58.6 58.6 0 00-55-38.8z" fill="#407093"/><circle cx="210.2" cy="187.2" fill="#365e7d" r="25"/><path d="M154.5 308.6h203a7.5 7.5 0 100-15h-203a7.5 7.5 0 100 15zM154.5 345.7h203a7.5 7.5 0 100-15h-203a7.5 7.5 0 100 15zM154.5 382.8h203a7.5 7.5 0 100-15h-203a7.5 7.5 0 100 15zM305 217.9h52.5a7.5 7.5 0 100-15H305a7.5 7.5 0 100 15zM305 179.2h52.5a7.5 7.5 0 100-15H305a7.5 7.5 0 100 15zM170.2 263.8h80a23.2 23.2 0 0023.2-23.1v-99.3a23.2 23.2 0 00-23.2-23.1h-80a23.2 23.2 0 00-23.2 23.1v99.3a23.2 23.2 0 0023.2 23.1zm80-15h-80c-3 0-5.6-1.5-7-4a50.8 50.8 0 0132-28.8 32.3 32.3 0 0030 0 50.8 50.8 0 0132 28.9c-1.4 2.4-4 4-7 4zm-40-44.2a17.5 17.5 0 110-35 17.5 17.5 0 010 35zm-40-71.3h80c4.5 0 8.2 3.6 8.2 8.1v78.2a65.7 65.7 0 00-20.9-15 32.5 32.5 0 10-54.7 0c-7.9 3.6-15 8.7-20.8 15v-78.2c0-4.5 3.7-8.1 8.2-8.1z"/><path d="M492 412.2h-14.2v-236a28.2 28.2 0 00-28.2-28.1h-18.1a7.5 7.5 0 100 15h18.1c7.3 0 13.2 5.9 13.2 13.2v235.9h-25v-203c0-11.6-9.5-21.1-21.2-21.1h-12.8V48.6c0-11.4-9.3-20.8-20.7-20.8H128.9a20.8 20.8 0 00-20.7 20.8v139.5H95.4a21.3 21.3 0 00-21.2 21.2v202.9h-25v-236c0-7.2 5.9-13.1 13.2-13.1h18.2a7.5 7.5 0 100-15H62.4a28.2 28.2 0 00-28.2 28.2v235.9H19.9C9 412.2 0 421 0 432a52.2 52.2 0 0052.1 52h407.8a52.2 52.2 0 0052.1-52c0-11-9-20-20-20zM416.7 203c3.4 0 6.2 2.8 6.2 6.2v202.9h-19V203zM128.9 42.8h254.2c3.2 0 5.7 2.6 5.7 5.8v28.8H172.6a7.5 7.5 0 100 15h216.2v319.8H123.2V92.4h14a7.5 7.5 0 100-15h-14V48.6c0-3.2 2.5-5.8 5.7-5.8zm194 384.4a21 21 0 01-19.7 13.5h-94.4a21 21 0 01-19.6-13.5zm-233.7-218c0-3.3 2.8-6.1 6.2-6.1h12.8v209h-19zm370.7 260H52.1A37.1 37.1 0 0115 432a5 5 0 015-5h153.6a36 36 0 0035.2 28.6h94.4a36 36 0 0035.2-28.5h153.7a5 5 0 014.9 4.9 37.1 37.1 0 01-37.1 37z"/></svg>