<svg viewBox="0 0 512 512" xmlns="http://www.w3.org/2000/svg"><path d="M476 215h-37c-8 0-15-5-18-13l-10-25c-4-7-2-16 3-22l26-26c10-10 10-26 0-37l-20-20a26 26 0 00-37 0l-26 26c-6 5-15 7-22 3l-25-10c-8-3-13-10-13-18V36c0-14-12-26-27-26h-28c-15 0-27 12-27 26v37c0 8-5 15-13 18l-25 10c-7 4-16 2-22-3l-26-26a26 26 0 00-37 0L72 92a26 26 0 000 37l26 26c5 6 7 15 3 22l-10 25c-3 8-10 13-18 13H36c-14 0-26 12-26 27v28c0 15 12 27 26 27h37c8 0 15 5 18 13l10 25c4 7 2 16-3 22l-26 26a26 26 0 000 37l20 20c11 10 27 10 37 0l26-26c6-5 15-7 22-3l25 10c8 3 13 10 13 18v37c0 14 12 26 27 26h28c15 0 27-12 27-26v-37c0-8 5-15 13-18l25-10c7-4 16-2 22 3l26 26c10 10 26 10 37 0l20-20c10-11 10-27 0-37l-26-26c-5-6-7-15-3-22l10-25c3-8 10-13 18-13h37c14 0 26-12 26-27v-28c0-15-12-27-26-27zM256 377a121 121 0 110-242 121 121 0 010 242z" fill="#b4bdd1"/><path d="M256 135a121 121 0 100 242 121 121 0 000-242zm7 190a70 70 0 11-14-138 70 70 0 0114 138z" fill="#fff398"/><path d="M476 205h-37c-4 0-7-2-8-6l-11-27c-2-3-1-7 2-10l25-25c14-15 14-38 0-52l-20-20a36 36 0 00-52 0l-25 25c-3 3-7 4-10 2l-27-11c-4-1-6-4-6-8V36c0-20-17-36-37-36h-28c-20 0-37 16-37 36v37c0 4-2 7-6 8l-27 11c-3 2-7 1-10-2l-25-25a36 36 0 00-52 0L65 85a36 36 0 000 52l25 25c3 3 4 7 2 10l-11 27c-1 4-4 6-8 6H36c-20 0-36 17-36 37v28c0 20 16 37 36 37h37c4 0 7 2 8 6l11 27c2 3 1 7-2 10l-25 25a36 36 0 000 52l20 20c14 14 37 14 52 0l25-25c3-3 7-4 10-2l27 11c4 1 6 4 6 8v37c0 20 17 36 37 36h28c20 0 37-16 37-36v-37c0-4 2-7 6-8l27-11c3-2 7-1 10 2l25 25c15 14 38 14 52 0l20-20c14-14 14-37 0-52l-25-25c-3-3-4-7-2-10l11-27c1-4 4-6 8-6h37c20 0 36-17 36-37v-28c0-20-16-37-36-37zm16 65c0 9-7 17-16 17h-37c-12 0-23 8-27 20l-10 23c-6 12-4 25 5 34l26 26c6 6 6 16 0 23l-20 20c-7 6-17 6-23 0l-26-26c-9-9-22-11-34-5l-23 10c-12 4-20 15-20 27v37c0 9-8 16-17 16h-28c-9 0-17-7-17-16v-37c0-12-8-23-20-27l-23-10c-12-6-25-3-34 5l-26 26c-6 6-16 6-23 0l-20-20c-6-7-6-17 0-23l26-26c9-9 11-22 5-34l-10-23c-4-12-15-20-27-20H36c-9 0-16-8-16-17v-28c0-9 7-17 16-17h37c12 0 23-8 27-20l10-23c6-12 4-25-5-34l-26-26c-6-6-6-16 0-23l20-20c7-6 17-6 23 0l26 26c9 9 22 11 34 5l23-10c12-4 20-15 20-27V36c0-9 8-16 17-16h28c9 0 17 7 17 16v37c0 12 8 23 20 27l23 10c12 6 25 4 34-5l26-26c6-6 16-6 23 0l20 20c6 7 6 17 0 23l-26 26c-9 9-11 22-5 34l10 23c4 12 15 20 27 20h37c9 0 16 8 16 17v28z"/><path d="M362 197c-5 2-7 8-5 13a111 111 0 11-41-47 10 10 0 1011-17 131 131 0 00-202 110 131 131 0 10250-54c-2-5-8-8-13-5z"/><path d="M256 176a80 80 0 100 160 80 80 0 000-160zm0 140a60 60 0 110-120 60 60 0 010 120zM348 187z"/></svg>