<svg xmlns="http://www.w3.org/2000/svg" viewBox="0 0 64 64"><g fill="#b7ca9d"><path d="M9.1 44.3l.4.5 22.6 6.4.1-4-15.8-4-.8-.2-6.5 1.3"/><path d="M54.9 44.3l-23 7.7-.1-4.8 15.8-4 .7-.7 6.6 1.8"/></g><path fill="#3c4929" d="M31.8 17l15.8 3.8 7-.4.3-.7-22-7.9-1.1 5.3"/><path fill="#759c3e" d="M16.4 43.2l-7.3 1-.2-.7v-23l.2-.8 6.6.5.7.6v22.4"/><path fill="#3c4929" d="M32.2 17l-15.8 3.8-7.3-1 .3-.5L32 12.8l.1 4.3"/><path fill="#4b612c" d="M32 0L5.7 13.3v37.5L32 64l.4-.6V.8zm-7.7 48.8L9.1 44.3V19.7l15.2-4.5zm23.3-5.6l7.3 1 .4-.7v-23l-.4-.8-7.3 1v22.5"/><path fill="#759c3e" d="M32 64l26.3-13.2V13.3L32 0zm7.7-48.8L55 19.7v24.6l-15.2 4.5z"/></svg>